<svg width="16" height="16" viewBox="0 0 16 16" fill="none" xmlns="http://www.w3.org/2000/svg">
<path d="M-0.00012207 4.7328V11.2672C-0.00012207 14.0984 1.82068 16 4.53188 16H11.4679C14.1791 16 15.9999 14.0984 15.9999 11.2672V4.7328C15.9999 1.9024 14.1783 0 11.4671 0L4.53188 0C1.82068 0 -0.00012207 1.9024 -0.00012207 4.7328Z" fill="#EB5757"/>
<path d="M4.57643 8.68437L7.57483 11.6964C7.80043 11.9228 8.19963 11.9228 8.42603 11.6964L11.4244 8.68437C11.658 8.44917 11.6572 8.06917 11.422 7.83557C11.1868 7.60197 10.8076 7.60197 10.5732 7.83717L8.59963 9.81877V4.73477C8.59963 4.40277 8.33083 4.13477 7.99963 4.13477C7.66843 4.13477 7.39963 4.40277 7.39963 4.73477V9.81877L5.42683 7.83717C5.30923 7.71957 5.15563 7.66117 5.00123 7.66117C4.84843 7.66117 4.69483 7.71957 4.57803 7.83557C4.34363 8.06917 4.34283 8.44917 4.57643 8.68437Z" fill="#FDFDFD"/>
</svg>
