<svg width="16" height="16" viewBox="0 0 16 16" fill="none" xmlns="http://www.w3.org/2000/svg">
<path d="M16.0001 11.2672V4.7328C16.0001 1.9016 14.1793 0 11.4681 0H4.53212C1.82092 0 0.00012207 1.9016 0.00012207 4.7328L0.00012207 11.2672C0.00012207 14.0976 1.82172 16 4.53292 16L11.4681 16C14.1793 16 16.0001 14.0976 16.0001 11.2672Z" fill="#2B7979"/>
<path d="M11.4236 7.31563L8.42517 4.30363C8.19957 4.07723 7.80037 4.07723 7.57397 4.30363L4.57557 7.31563C4.34197 7.55083 4.34277 7.93083 4.57797 8.16443C4.81317 8.39803 5.19237 8.39803 5.42677 8.16283L7.40037 6.18123L7.40037 11.2652C7.40037 11.5972 7.66917 11.8652 8.00037 11.8652C8.33157 11.8652 8.60037 11.5972 8.60037 11.2652V6.18123L10.5732 8.16283C10.6908 8.28043 10.8444 8.33883 10.9988 8.33883C11.1516 8.33883 11.3052 8.28043 11.422 8.16443C11.6564 7.93083 11.6572 7.55083 11.4236 7.31563Z" fill="#FDFDFD"/>
</svg>
