<svg width="375" height="251" viewBox="0 0 375 251" fill="none" xmlns="http://www.w3.org/2000/svg">
<path d="M-12.8539 249V142.261C-12.8539 135.989 -9.40028 130.226 -3.86906 127.269L49.44 98.7681C55.9889 95.2668 64.0525 96.4215 69.3556 101.62L112.447 143.861C117.249 148.568 124.374 150.002 130.623 147.52L167.805 132.75C174.065 130.264 181.204 131.708 186.005 136.433L197.21 147.459C200.39 150.588 204.672 152.342 209.134 152.342H226.043C232.121 152.342 237.736 155.587 240.771 160.852L247.389 172.33C251.956 180.252 263.491 179.944 267.63 171.79V171.79C270.349 166.432 276.773 164.084 282.328 166.375V166.375C283.431 166.83 284.464 167.456 285.376 168.224L285.678 168.479C292.354 174.101 302.483 172.375 306.919 164.858L327.32 130.29C327.959 129.206 328.477 128.054 328.862 126.856L350.96 58.1727C355.901 42.8164 378.065 44.1889 381.073 60.0374V60.0374C381.793 63.8297 383.896 67.2193 386.974 69.5484L405.194 83.3335C408.369 85.7365 410.601 89.1781 411.499 93.0581L416.689 115.491C418.473 123.2 425.339 128.659 433.252 128.659H454.701C459.129 128.659 463.075 131.456 464.541 135.634V135.634C467.924 145.275 481.715 144.805 484.434 134.956L492.287 106.509C496.356 91.7686 516.299 89.4757 523.607 102.908L531 116.497" stroke="#2B7979" stroke-width="2.77813" stroke-linecap="round"/>
<path opacity="0.5" d="M112.862 143.849L69.7725 101.568C64.4999 96.3938 56.4895 95.2172 49.9518 98.6561L-3.28139 126.658C-8.83687 129.58 -12.3299 135.326 -12.3669 141.603L-12.8991 231.806C-12.9547 241.233 -5.3293 248.905 4.09755 248.906L513.995 248.997C523.385 248.999 530.998 241.387 530.998 231.997V120.818C530.998 117.983 530.289 115.192 528.935 112.7L523.637 102.953C516.332 89.513 496.379 91.8054 492.312 106.552L484.48 134.953C481.766 144.796 467.984 145.265 464.606 135.63C463.142 131.454 459.2 128.659 454.774 128.659H433.367C425.453 128.659 418.585 123.198 416.803 115.487L411.618 93.0559C410.722 89.1772 408.493 85.7362 405.319 83.3327L387.116 69.5457C384.043 67.2183 381.944 63.8326 381.226 60.0453C378.223 44.2068 356.072 42.8363 351.139 58.1838L329.066 126.857C328.682 128.055 328.165 129.206 327.526 130.289L307.144 164.862C302.715 172.374 292.594 174.099 285.927 168.478L285.625 168.224C284.714 167.455 283.683 166.83 282.581 166.376C277.031 164.084 270.614 166.433 267.898 171.789C263.765 179.939 252.236 180.246 247.675 172.327L241.07 160.858C238.035 155.589 232.418 152.342 226.338 152.342H209.473C205.009 152.342 200.724 150.586 197.543 147.453L186.367 136.444C181.565 131.713 174.42 130.267 168.156 132.758L131.05 147.512C124.796 149.999 117.665 148.563 112.862 143.849Z" fill="url(#paint0_linear_155_1656)"/>
<defs>
<linearGradient id="paint0_linear_155_1656" x1="285.971" y1="0" x2="285.971" y2="237.533" gradientUnits="userSpaceOnUse">
<stop stop-color="#2B7979"/>
<stop offset="1" stop-color="#2B7979" stop-opacity="0"/>
</linearGradient>
</defs>
</svg>
