<svg width="32" height="32" viewBox="0 0 32 32" fill="none" xmlns="http://www.w3.org/2000/svg">
<path opacity="0.4" d="M2.66658 16.1145C2.66658 15.9494 2.7045 15.7856 2.78164 15.6366L5.26711 10.8349C5.97313 9.47098 6.76545 8.40512 7.68851 7.57418C9.70721 5.75121 12.2986 4.73904 14.9867 4.72159L23.8342 4.66655C24.8554 4.65984 25.7719 5.31762 26.117 6.30293L29.1909 15.1198C29.3778 15.6447 29.3804 16.2286 29.2 16.7602L26.2308 25.6106C25.9 26.6013 24.99 27.2711 23.9702 27.2765L15.1161 27.3329C12.4319 27.3503 9.83011 26.3731 7.78918 24.5796C6.85305 23.7554 6.04896 22.7003 5.32986 21.3512L2.78818 16.5924C2.70842 16.4447 2.66789 16.2796 2.66658 16.1145Z" fill="#1F2C37"/>
<path d="M16.3667 17.4233L18.1305 19.2342C18.5136 19.6275 19.1333 19.6275 19.5164 19.2342C19.8995 18.8409 19.8995 18.2032 19.5164 17.8099L17.754 15.999L19.5164 14.1895C19.8995 13.7962 19.8995 13.1585 19.5164 12.7652C19.1333 12.3719 18.5136 12.3719 18.1305 12.7652L16.3667 14.5761L14.603 12.7652C14.2199 12.3719 13.6002 12.3719 13.2171 12.7652C13.0249 12.9625 12.9295 13.2203 12.9295 13.478C12.9295 13.7344 13.0249 13.9922 13.2171 14.1895L14.9795 15.999L13.2171 17.8099C13.0249 18.0073 12.9295 18.2637 12.9295 18.5214C12.9295 18.7791 13.0249 19.0369 13.2171 19.2342C13.6002 19.6275 14.2199 19.6275 14.603 19.2342L16.3667 17.4233Z" fill="#1F2C37"/>
</svg>
