<?xml version="1.0" encoding="UTF-8"?>
<!DOCTYPE svg PUBLIC "-//W3C//DTD SVG 1.1//EN" "http://www.w3.org/Graphics/SVG/1.1/DTD/svg11.dtd">
<svg xmlns="http://www.w3.org/2000/svg" version="1.1" width="24px" height="24px" style="shape-rendering:geometricPrecision; text-rendering:geometricPrecision; image-rendering:optimizeQuality; fill-rule:evenodd; clip-rule:evenodd" xmlns:xlink="http://www.w3.org/1999/xlink">
<g><path style="opacity:1" fill="#778289" d="M 1.5,1.5 C 8.16667,1.5 14.8333,1.5 21.5,1.5C 21.5,6.83333 21.5,12.1667 21.5,17.5C 16.1563,17.334 10.8229,17.5006 5.5,18C 4.33333,19.1667 3.16667,20.3333 2,21.5C 1.50042,14.8417 1.33375,8.17499 1.5,1.5 Z M 3.5,3.5 C 8.83333,3.5 14.1667,3.5 19.5,3.5C 19.5,7.5 19.5,11.5 19.5,15.5C 14.1667,15.5 8.83333,15.5 3.5,15.5C 3.5,11.5 3.5,7.5 3.5,3.5 Z"/></g>
<g><path style="opacity:1" fill="#778289" d="M 10.5,5.5 C 11.5862,5.61998 12.2528,6.28665 12.5,7.5C 12.1667,8.16667 11.8333,8.83333 11.5,9.5C 10.5713,8.31116 10.238,6.97782 10.5,5.5 Z"/></g>
<g><path style="opacity:1" fill="#778289" d="M 10.5,11.5 C 12.337,11.6395 12.6704,12.3061 11.5,13.5C 10.7025,13.0431 10.3691,12.3764 10.5,11.5 Z"/></g>
</svg>
