<svg xmlns="http://www.w3.org/2000/svg" width="26.813" height="26.813" viewBox="0 0 26.813 26.813">
  <g id="tabler-icon-chart-pie_1_" data-name="tabler-icon-chart-pie (1)" >
    <path id="Path_62733" data-name="Path 62733" d="M0,0H26.813V26.813H0Z" fill="none"/>
    <path id="Path_62734" data-name="Path 62734" d="M10.817,3.2A10.055,10.055,0,1,0,22.883,15.267a1.117,1.117,0,0,0-1.117-1.117h-7.6a2.234,2.234,0,0,1-2.234-2.234V4.094A1.005,1.005,0,0,0,10.817,3.2" transform="translate(0.355 0.374)" fill="none" stroke="#102e28" stroke-linecap="round" stroke-linejoin="round" stroke-width="1.5"/>
    <path id="Path_62735" data-name="Path 62735" d="M15,3.5a10.055,10.055,0,0,1,6.145,6.145H16.117A1.117,1.117,0,0,1,15,8.527V3.5" transform="translate(1.758 0.41)" fill="none" stroke="#102e28" stroke-linecap="round" stroke-linejoin="round" stroke-width="1.5"/>
  </g>
</svg>
