<?xml version="1.0" encoding="utf-8"?>
<!-- Generator: Adobe Illustrator 23.0.0, SVG Export Plug-In . SVG Version: 6.00 Build 0)  -->
<svg version="1.1" id="Layer_1" xmlns="http://www.w3.org/2000/svg" xmlns:xlink="http://www.w3.org/1999/xlink" x="0px" y="0px"
	 viewBox="0 0 2880 2880" style="enable-background:new 0 0 2880 2880;" xml:space="preserve">
<style type="text/css">
	.st0{fill:url(#SVGID_1_);}
	.st1{fill:url(#SVGID_2_);}
	.st2{fill:url(#SVGID_3_);}
	.st3{display:none;fill:url(#SVGID_4_);}
	.st4{fill:#2F4858;}
	.st5{display:none;fill:none;}
</style>
<linearGradient id="SVGID_1_" gradientUnits="userSpaceOnUse" x1="1784.1222" y1="1192.1421" x2="1058.6821" y2="773.3091">
	<stop  offset="0" style="stop-color:#CCE0F4"/>
	<stop  offset="0" style="stop-color:#C3DBF2"/>
	<stop  offset="0" style="stop-color:#A9CEEB"/>
	<stop  offset="0" style="stop-color:#80B8E0"/>
	<stop  offset="0" style="stop-color:#469AD1"/>
	<stop  offset="0" style="stop-color:#0075BE"/>
	<stop  offset="0" style="stop-color:#007261"/>
	<stop  offset="0.9944" style="stop-color:#358873"/>
</linearGradient>
<path class="st0" d="M1145.4,1725.5c4.4-71.7,7-180-6.3-310.8c-5.4-53.4-11.6-92.5-17.8-123.9c-20-101-30.7-172.1-33.8-188.4
	c-15.7-82-49.6-407.9,151.2-607.4c113.1-112.4,253-137.3,315.6-148.5c220.8-39.4,395.8,42.5,456.1,74.3c3,44.8,5.2,107.3,1.8,181.8
	c-4.2,91.2-5.6,157.6-28.2,224.3c-51.7,152.6-169.7,244.7-187.8,258c-197.1,145.3-435.8,104-474.1,96.8c3.7-39.6,11.7-92.6,29.5-153
	c33.9-114.9,85.2-194.3,107.1-226c58.1-84.1,118.1-135,156.5-167.1c119.3-99.8,226.6-141.7,224.5-145.6
	c-2.5-4.9-157,74.2-187.4,92.1c-25.6,15-50.1,31.1-50.1,31.1c0,0,0,0,0,0c-7.8,5.3-16,11.1-24.7,17.7
	c-58.8,44.2-95.9,86.3-122.3,116.9c-19.8,22.9-54.5,63.4-89.2,121.3c-20.2,33.7-69,120.9-95.1,243.9c-26.9,126.6-3,164.4-13.6,278.5
	C1249.7,1472.8,1225,1588.4,1145.4,1725.5z"/>
<linearGradient id="SVGID_2_" gradientUnits="userSpaceOnUse" x1="1108.3739" y1="1428.6768" x2="862.4706" y2="1428.6768">
	<stop  offset="0" style="stop-color:#CCE0F4"/>
	<stop  offset="0" style="stop-color:#C3DBF2"/>
	<stop  offset="0" style="stop-color:#A9CEEB"/>
	<stop  offset="0" style="stop-color:#80B8E0"/>
	<stop  offset="0" style="stop-color:#469AD1"/>
	<stop  offset="0" style="stop-color:#0075BE"/>
	<stop  offset="0" style="stop-color:#A6D49F"/>
	<stop  offset="0.9944" style="stop-color:#8AC680"/>
</linearGradient>
<path class="st1" d="M869.1,1246.5c-5.8,23.6-15.5,78.6,10.6,135.2c17.1,37.1,42.7,60.2,55.7,71.6c50.2,44.3,81.8,36.4,119.3,74.3
	c15.5,15.7,34.7,41.8,45.4,86.3c6.5-33.4,13.1-87.5,3.1-152.5c-9.7-62.7-21.7-140.6-85.6-185.8
	C963.5,1237.4,899.5,1241.9,869.1,1246.5z"/>
<linearGradient id="SVGID_3_" gradientUnits="userSpaceOnUse" x1="2007.9286" y1="1033.2908" x2="1074.8716" y2="1033.2908">
	<stop  offset="0" style="stop-color:#CCE0F4"/>
	<stop  offset="0" style="stop-color:#C3DBF2"/>
	<stop  offset="0" style="stop-color:#A9CEEB"/>
	<stop  offset="0" style="stop-color:#80B8E0"/>
	<stop  offset="0" style="stop-color:#469AD1"/>
	<stop  offset="0" style="stop-color:#0075BE"/>
	<stop  offset="0" style="stop-color:#007261"/>
	<stop  offset="0.9944" style="stop-color:#358873"/>
</linearGradient>
<path class="st2" d="M1367.2,871.5c6.6-10.9,37.7-62.1,89.6-121.3c26.9-30.7,76.7-83.2,149.6-136c12.3-8.9,54-38.7,133.6-80.5
	c63.2-33.2,153.1-75.5,267.8-114c-66.2-33.8-237.5-108.7-451.5-70.7c-62.9,11.2-203.5,36.1-317.1,148.5
	c-201.8,199.6-167.7,525.4-152,607.4c3.1,16.3,13.9,87.4,34,188.4c6.2,31.4,12.5,70.5,17.9,123.9c13.3,130.8,10.7,239.1,6.3,310.8
	c79.9-137,104.8-252.6,112.4-334.1c10.7-114.1-13.4-151.9,13.7-278.5C1297.9,992.4,1346.9,905.2,1367.2,871.5z"/>
<linearGradient id="SVGID_4_" gradientUnits="userSpaceOnUse" x1="1138.8267" y1="1586.8625" x2="924.0078" y2="1214.7853">
	<stop  offset="0" style="stop-color:#CCE0F4"/>
	<stop  offset="0" style="stop-color:#C3DBF2"/>
	<stop  offset="0" style="stop-color:#A9CEEB"/>
	<stop  offset="0" style="stop-color:#80B8E0"/>
	<stop  offset="0" style="stop-color:#469AD1"/>
	<stop  offset="0" style="stop-color:#0075BE"/>
	<stop  offset="0" style="stop-color:#A6D49F"/>
	<stop  offset="0.9944" style="stop-color:#8AC680"/>
</linearGradient>
<path class="st3" d="M916.9,1275.6c65.5,42.7,101.4,98.6,119.3,132.6c28.1,59.3,43.8,109.8,53,145.9c5.1,19.9,9.1,38.8,11.9,54.6
	c6.1-33.6,11.7-85.5,2.2-147.2c-9.7-62.7-21.7-140.6-85.6-185.8c-54.1-38.3-118.1-33.8-148.5-29.2c-0.2,0.9-0.5,2-0.7,3
	C883.7,1256.2,900.1,1264.7,916.9,1275.6z"/>
<g>
	<path class="st4" d="M642.3,1748.6h125.3c83.2,0,131.8,45.9,131.8,122.6c0,76.7-48.6,122.6-131.8,122.6h-77.2v127.4
		c0,3.2-2.2,5.4-5.4,5.4h-42.7c-3.2,0-4.9-2.2-4.9-5.4V1754C637.5,1750.8,639.1,1748.6,642.3,1748.6z M690.4,1945.2h67.5
		c57.8,0,86.4-23.2,86.4-74.5c0-50.8-28.6-72.9-86.4-72.9h-67.5V1945.2z"/>
	<path class="st4" d="M930.5,1889h27.5c2.7,0,4.9,1.6,5.4,4.3l7.6,43.2c18.4-30.8,49.1-51.3,94-54c3.2,0,4.9,2.2,4.9,5.4v38.9
		c0,3.8-1.6,5.9-5.4,5.9c-51.3-1.6-89.1,23.2-89.1,82.6v105.8c0,3.2-1.6,5.4-4.9,5.4h-40c-2.7,0-4.9-2.2-4.9-5.4v-226.8
		C925.7,1891.2,927.8,1889,930.5,1889z"/>
	<path class="st4" d="M1325.7,2007.8c0,71.8-51.8,125.3-124.7,125.3c-72.4,0-124.7-53.5-124.7-125.3c0-72.4,52.4-125.3,124.7-125.3
		S1325.7,1935.5,1325.7,2007.8z M1127.5,2007.3c0,50.2,30.2,82.6,73.4,82.6c43.7,0,74-32.4,74-82.6c0-50.2-30.2-81.5-74-81.5
		C1157.7,1925.8,1127.5,1957.1,1127.5,2007.3z"/>
	<path class="st4" d="M1508.1,1949c-16.7-14-41.6-24.3-65.9-24.3c-27.5,0-43.2,9.2-43.2,25.4c0,18.9,11.3,27.5,57.8,37.3
		c65.3,13.5,89.1,32.4,89.1,71.3c0,43.7-41,74.5-101,74.5c-41,0-79.9-13.5-103.7-32.9c-2.2-2.2-2.2-4.3-0.5-6.5l19.4-29.2
		c2.2-2.7,4.3-3.2,7.6-1.1c18.9,14,47,27.5,78.3,27.5c27.5,0,48.6-13,48.6-29.7c0-17.3-10.3-23.8-65.9-36.2
		c-56.2-12.4-81-35.1-81-72.9c0-42.1,35.6-69.7,93.4-69.7c40,0,73.4,13,97.2,32.4c2.2,1.6,2.2,4.9,0.5,7l-23.2,26.5
		C1514.1,1950.6,1510.8,1950.6,1508.1,1949z"/>
	<path class="st4" d="M1824.2,2008.4c0,72.4-49.1,124.7-116.6,124.7c-36.2,0-64.8-16.2-82.6-42.7v133.4c0,3.2-2.2,5.4-5.4,5.4h-39.4
		c-3.2,0-5.4-2.2-5.4-5.4v-329.4c0-3.2,2.2-5.4,5.4-5.4h27.5c2.7,0,4.9,1.6,5.4,4.3l8.1,38.9c17.3-30.8,47.5-49.7,86.4-49.7
		C1775,1882.6,1824.2,1935.5,1824.2,2008.4z M1623.3,2008.4c0,47.5,32.9,80.5,75.6,80.5c47,0,74.5-33.5,74.5-80.5
		s-27.5-82.1-74.5-82.1C1656.2,1926.3,1623.3,1959.8,1623.3,2008.4z"/>
	<path class="st4" d="M2105.6,2008.4c0,72.4-49.1,124.7-116.6,124.7c-36.2,0-64.8-16.2-82.6-42.7v133.4c0,3.2-2.2,5.4-5.4,5.4h-39.4
		c-3.2,0-5.4-2.2-5.4-5.4v-329.4c0-3.2,2.2-5.4,5.4-5.4h27.5c2.7,0,4.9,1.6,5.4,4.3l8.1,38.9c17.3-30.8,47.5-49.7,86.4-49.7
		C2056.5,1882.6,2105.6,1935.5,2105.6,2008.4z M1904.7,2008.4c0,47.5,32.9,80.5,75.6,80.5c47,0,74.5-33.5,74.5-80.5
		s-27.5-82.1-74.5-82.1C1937.7,1926.3,1904.7,1959.8,1904.7,2008.4z"/>
	<path class="st4" d="M2142.7,1889h27.5c2.7,0,4.9,1.6,5.4,4.3l7.6,43.2c18.4-30.8,49.1-51.3,94-54c3.2,0,4.9,2.2,4.9,5.4v38.9
		c0,3.8-1.6,5.9-5.4,5.9c-51.3-1.6-89.1,23.2-89.1,82.6v105.8c0,3.2-1.6,5.4-4.9,5.4h-40c-2.7,0-4.9-2.2-4.9-5.4v-226.8
		C2137.8,1891.2,2140,1889,2142.7,1889z"/>
</g>
<line class="st5" x1="0" y1="172" x2="2880" y2="172"/>
<g>
</g>
<g>
</g>
<g>
</g>
<g>
</g>
<g>
</g>
<g>
</g>
<g>
</g>
<g>
</g>
<g>
</g>
<g>
</g>
<g>
</g>
<g>
</g>
<g>
</g>
<g>
</g>
<g>
</g>
</svg>
