<?xml version="1.0" encoding="utf-8"?>
<!-- Generator: Adobe Illustrator 23.0.0, SVG Export Plug-In . SVG Version: 6.00 Build 0)  -->
<svg version="1.1" id="Layer_1" xmlns="http://www.w3.org/2000/svg" xmlns:xlink="http://www.w3.org/1999/xlink" x="0px" y="0px"
	 viewBox="0 0 446 112" style="enable-background:new 0 0 446 112;" xml:space="preserve">
<style type="text/css">
	.st0{fill:url(#SVGID_1_);}
	.st1{fill:url(#SVGID_2_);}
	.st2{fill:url(#SVGID_3_);}
	.st3{fill:url(#SVGID_4_);}
	.st4{fill:#2F4858;}
</style>
<linearGradient id="SVGID_1_" gradientUnits="userSpaceOnUse" x1="90.9709" y1="67.5789" x2="36.2508" y2="35.9863">
	<stop  offset="0" style="stop-color:#CCE0F4"/>
	<stop  offset="0" style="stop-color:#C3DBF2"/>
	<stop  offset="0" style="stop-color:#A9CEEB"/>
	<stop  offset="0" style="stop-color:#80B8E0"/>
	<stop  offset="0" style="stop-color:#469AD1"/>
	<stop  offset="0" style="stop-color:#0075BE"/>
	<stop  offset="0" style="stop-color:#007261"/>
	<stop  offset="0.9944" style="stop-color:#358873"/>
</linearGradient>
<path class="st0" d="M42.8,107.8c0.3-5.4,0.5-13.6-0.5-23.4c-0.4-4-0.9-7-1.3-9.3c-1.5-7.6-2.3-13-2.6-14.2
	C37.2,54.6,34.7,30,49.8,15C58.4,6.5,68.9,4.6,73.6,3.8c16.7-3,29.9,3.2,34.4,5.6c0.2,3.4,0.4,8.1,0.1,13.7
	c-0.3,6.9-0.4,11.9-2.1,16.9c-3.9,11.5-12.8,18.5-14.2,19.5C77,70.4,59,67.3,56.1,66.8c0.3-3,0.9-7,2.2-11.5
	c2.6-8.7,6.4-14.7,8.1-17c4.4-6.3,8.9-10.2,11.8-12.6c9-7.5,17.1-10.7,16.9-11C95,14.2,83.3,20.2,81,21.6c-1.9,1.1-3.8,2.3-3.8,2.3
	c0,0,0,0,0,0c-0.6,0.4-1.2,0.8-1.9,1.3c-4.4,3.3-7.2,6.5-9.2,8.8c-1.5,1.7-4.1,4.8-6.7,9.1c-1.5,2.5-5.2,9.1-7.2,18.4
	c-2,9.6-0.2,12.4-1,21C50.7,88.8,48.8,97.5,42.8,107.8z"/>
<linearGradient id="SVGID_2_" gradientUnits="userSpaceOnUse" x1="39.9991" y1="85.4207" x2="21.4506" y2="85.4207">
	<stop  offset="0" style="stop-color:#CCE0F4"/>
	<stop  offset="0" style="stop-color:#C3DBF2"/>
	<stop  offset="0" style="stop-color:#A9CEEB"/>
	<stop  offset="0" style="stop-color:#80B8E0"/>
	<stop  offset="0" style="stop-color:#469AD1"/>
	<stop  offset="0" style="stop-color:#0075BE"/>
	<stop  offset="0" style="stop-color:#A6D49F"/>
	<stop  offset="0.9944" style="stop-color:#8AC680"/>
</linearGradient>
<path class="st1" d="M22,71.7c-0.4,1.8-1.2,5.9,0.8,10.2c1.3,2.8,3.2,4.5,4.2,5.4c3.8,3.3,6.2,2.7,9,5.6c1.2,1.2,2.6,3.2,3.4,6.5
	c0.5-2.5,1-6.6,0.2-11.5c-0.7-4.7-1.6-10.6-6.5-14C29.1,71,24.2,71.3,22,71.7z"/>
<linearGradient id="SVGID_3_" gradientUnits="userSpaceOnUse" x1="107.8526" y1="55.5967" x2="37.472" y2="55.5967">
	<stop  offset="0" style="stop-color:#CCE0F4"/>
	<stop  offset="0" style="stop-color:#C3DBF2"/>
	<stop  offset="0" style="stop-color:#A9CEEB"/>
	<stop  offset="0" style="stop-color:#80B8E0"/>
	<stop  offset="0" style="stop-color:#469AD1"/>
	<stop  offset="0" style="stop-color:#0075BE"/>
	<stop  offset="0" style="stop-color:#007261"/>
	<stop  offset="0.9944" style="stop-color:#358873"/>
</linearGradient>
<path class="st2" d="M59.5,43.4c0.5-0.8,2.8-4.7,6.8-9.1c2-2.3,5.8-6.3,11.3-10.3c0.9-0.7,4.1-2.9,10.1-6.1
	c4.8-2.5,11.5-5.7,20.2-8.6c-5-2.6-17.9-8.2-34.1-5.3c-4.7,0.8-15.3,2.7-23.9,11.2C34.7,30.2,37.2,54.8,38.4,61
	c0.2,1.2,1,6.6,2.6,14.2c0.5,2.4,0.9,5.3,1.4,9.3c1,9.9,0.8,18,0.5,23.4c6-10.3,7.9-19.1,8.5-25.2c0.8-8.6-1-11.5,1-21
	C54.3,52.5,58,45.9,59.5,43.4z"/>
<linearGradient id="SVGID_4_" gradientUnits="userSpaceOnUse" x1="42.2961" y1="97.3527" x2="26.0923" y2="69.2869">
	<stop  offset="0" style="stop-color:#CCE0F4"/>
	<stop  offset="0" style="stop-color:#C3DBF2"/>
	<stop  offset="0" style="stop-color:#A9CEEB"/>
	<stop  offset="0" style="stop-color:#80B8E0"/>
	<stop  offset="0" style="stop-color:#469AD1"/>
	<stop  offset="0" style="stop-color:#0075BE"/>
	<stop  offset="0" style="stop-color:#A6D49F"/>
	<stop  offset="0.9944" style="stop-color:#8AC680"/>
</linearGradient>
<path class="st3" d="M25.6,73.9c4.9,3.2,7.7,7.4,9,10c2.1,4.5,3.3,8.3,4,11c0.4,1.5,0.7,2.9,0.9,4.1c0.5-2.5,0.9-6.5,0.2-11.1
	c-0.7-4.7-1.6-10.6-6.5-14c-4.1-2.9-8.9-2.5-11.2-2.2c0,0.1,0,0.1-0.1,0.2C23.1,72.4,24.3,73.1,25.6,73.9z"/>
<g>
	<path class="st4" d="M129.3,14.8h23.6c15.7,0,24.9,8.9,24.9,23.7c0,14.9-9.2,23.7-24.9,23.7h-14.6v24.7c0,0.6-0.4,1-1,1h-8.1
		c-0.6,0-0.9-0.4-0.9-1V15.8C128.4,15.2,128.7,14.8,129.3,14.8z M138.3,52.9h12.7c10.9,0,16.3-4.5,16.3-14.4
		c0-9.8-5.4-14.1-16.3-14.1h-12.7V52.9z"/>
	<path class="st4" d="M183.7,42h5.2c0.5,0,0.9,0.3,1,0.8l1.4,8.4c3.5-6,9.3-9.9,17.7-10.5c0.6,0,0.9,0.4,0.9,1v7.5
		c0,0.7-0.3,1.1-1,1.1c-9.7-0.3-16.8,4.5-16.8,16v20.5c0,0.6-0.3,1-0.9,1h-7.5c-0.5,0-0.9-0.4-0.9-1V43
		C182.7,42.4,183.2,42,183.7,42z"/>
	<path class="st4" d="M258.2,65c0,13.9-9.8,24.3-23.5,24.3c-13.7,0-23.5-10.4-23.5-24.3c0-14,9.9-24.3,23.5-24.3S258.2,51,258.2,65z
		 M220.8,64.9c0,9.7,5.7,16,13.9,16c8.3,0,14-6.3,14-16c0-9.7-5.7-15.8-14-15.8C226.5,49.1,220.8,55.2,220.8,64.9z"/>
	<path class="st4" d="M292.7,53.6c-3.2-2.7-7.8-4.7-12.4-4.7c-5.2,0-8.2,1.8-8.2,4.9c0,3.7,2.1,5.3,10.9,7.2
		c12.3,2.6,16.8,6.3,16.8,13.8c0,8.5-7.7,14.4-19.1,14.4c-7.7,0-15.1-2.6-19.6-6.4c-0.4-0.4-0.4-0.8-0.1-1.3l3.7-5.6
		c0.4-0.5,0.8-0.6,1.4-0.2c3.6,2.7,8.9,5.3,14.8,5.3c5.2,0,9.2-2.5,9.2-5.8c0-3.3-1.9-4.6-12.4-7c-10.6-2.4-15.3-6.8-15.3-14.1
		c0-8.2,6.7-13.5,17.6-13.5c7.5,0,13.9,2.5,18.3,6.3c0.4,0.3,0.4,0.9,0.1,1.4l-4.4,5.1C293.8,53.9,293.2,53.9,292.7,53.6z"/>
	<path class="st4" d="M352.3,65.1c0,14-9.3,24.2-22,24.2c-6.8,0-12.2-3.1-15.6-8.3v25.8c0,0.6-0.4,1-1,1h-7.4c-0.6,0-1-0.4-1-1V43
		c0-0.6,0.4-1,1-1h5.2c0.5,0,0.9,0.3,1,0.8l1.5,7.5c3.3-6,9-9.6,16.3-9.6C343,40.7,352.3,51,352.3,65.1z M314.4,65.1
		c0,9.2,6.2,15.6,14.3,15.6c8.9,0,14.1-6.5,14.1-15.6c0-9.1-5.2-15.9-14.1-15.9C320.6,49.2,314.4,55.7,314.4,65.1z"/>
	<path class="st4" d="M405.4,65.1c0,14-9.3,24.2-22,24.2c-6.8,0-12.2-3.1-15.6-8.3v25.8c0,0.6-0.4,1-1,1h-7.4c-0.6,0-1-0.4-1-1V43
		c0-0.6,0.4-1,1-1h5.2c0.5,0,0.9,0.3,1,0.8l1.5,7.5c3.3-6,9-9.6,16.3-9.6C396.2,40.7,405.4,51,405.4,65.1z M367.5,65.1
		c0,9.2,6.2,15.6,14.3,15.6c8.9,0,14.1-6.5,14.1-15.6c0-9.1-5.2-15.9-14.1-15.9C373.7,49.2,367.5,55.7,367.5,65.1z"/>
	<path class="st4" d="M412.4,42h5.2c0.5,0,0.9,0.3,1,0.8l1.4,8.4c3.5-6,9.3-9.9,17.7-10.5c0.6,0,0.9,0.4,0.9,1v7.5
		c0,0.7-0.3,1.1-1,1.1c-9.7-0.3-16.8,4.5-16.8,16v20.5c0,0.6-0.3,1-0.9,1h-7.5c-0.5,0-0.9-0.4-0.9-1V43
		C411.5,42.4,411.9,42,412.4,42z"/>
</g>
<g>
</g>
<g>
</g>
<g>
</g>
<g>
</g>
<g>
</g>
<g>
</g>
<g>
</g>
<g>
</g>
<g>
</g>
<g>
</g>
<g>
</g>
<g>
</g>
<g>
</g>
<g>
</g>
<g>
</g>
</svg>
