<svg width="211" height="69" viewBox="0 0 211 69" fill="none" xmlns="http://www.w3.org/2000/svg">
<path d="M208 21.7642C198.495 28.4039 187.205 32.1097 175.563 32.4123C172.549 32.4006 170.225 31.1158 168.024 28.7611C165.696 26.2708 163.763 22.8633 161.579 18.9691L161.469 18.7736C159.417 15.1133 157.115 11.0084 154.165 7.85261C151.046 4.51581 146.985 2 141.491 2C131.697 2 126.615 6.22627 122.251 9.8544L122.203 9.89489C118.049 13.3486 114.605 16.1811 107.382 16.1811C101.347 16.1811 97.368 20.4825 94.6349 25.0669C91.9389 29.5886 89.8016 35.4761 87.8005 40.9884C87.7395 41.1558 87.6789 41.3226 87.6186 41.489C85.4931 47.3405 83.4955 52.7453 81.0575 56.7123C78.5933 60.7226 76.3012 62.2678 73.9024 62.2678C66.9969 62.2678 63.6469 58.8384 59.3821 54.3172L59.24 54.1665C55.0046 49.6754 49.8298 44.1878 39.7926 44.1878C30.0044 44.1878 20.6718 49.9979 14.1532 55.2361C10.815 57.9185 8.04298 60.5924 6.10611 62.5931C5.1356 63.5961 4.36949 64.435 3.84126 65.0292C3.57702 65.3265 3.37194 65.5629 3.23021 65.728C3.15933 65.8107 3.10426 65.8756 3.06552 65.9217L3.01971 65.9764L3.0061 65.9925L3 66" stroke="#8AC680" stroke-width="3" stroke-linecap="square"/>
</svg>
