<svg width="175" height="53" viewBox="0 0 175 53" fill="none" xmlns="http://www.w3.org/2000/svg">
<path d="M221.335 23.7368C251.578 23.7368 236.069 57 269.414 57L-40.0001 57C-10.532 57 -29.9189 34.0526 1.1001 34.0526C32.1191 34.0526 34.4455 18.8947 56.9343 18.8947C79.4231 18.8947 77.0966 42.8947 101.912 42.8947C126.727 42.8947 115.87 32.7895 139.135 32.7895C162.399 32.7895 156.971 12.7895 176.357 12.7895C195.744 12.7895 191.091 23.7368 221.335 23.7368Z" fill="url(#paint0_linear_151_2968)"/>
<path d="M409 9C384.96 9 382.634 1 357.043 1C331.453 1 337.656 23.7368 313.617 23.7368C289.577 23.7368 302.76 57 269.415 57C236.069 57 251.579 23.7368 221.335 23.7368C191.092 23.7368 195.744 12.7895 176.358 12.7895C156.971 12.7895 162.399 32.7895 139.135 32.7895C115.87 32.7895 126.727 42.8947 101.912 42.8947C77.0967 42.8947 79.4232 18.8947 56.9344 18.8947C34.4456 18.8947 32.1192 34.0526 1.10019 34.0526C-29.9188 34.0526 -10.5319 52.7895 -40 52.7895" stroke="#2B7979" stroke-linecap="round"/>
<defs>
<linearGradient id="paint0_linear_151_2968" x1="79" y1="13" x2="79" y2="57" gradientUnits="userSpaceOnUse">
<stop stop-color="#BCECDC"/>
<stop offset="1" stop-color="#ECFBF6" stop-opacity="0"/>
</linearGradient>
</defs>
</svg>
