<svg xmlns="http://www.w3.org/2000/svg" width="14.547" height="9.702" viewBox="0 0 14.547 9.702">
  <path id="Icon_ionic-ios-arrow-round-back" data-name="Icon ionic-ios-arrow-round-back" d="M13.152,11.437a.66.66,0,0,1,.005.93L10.09,15.444H21.777a.657.657,0,0,1,0,1.314H10.09l3.072,3.077a.665.665,0,0,1-.005.93.654.654,0,0,1-.925-.005L8.069,16.566h0a.738.738,0,0,1-.136-.207.627.627,0,0,1-.051-.253.659.659,0,0,1,.187-.46l4.164-4.194A.644.644,0,0,1,13.152,11.437Z" transform="translate(-7.882 -11.252)" fill="#fff"/>
</svg>
