<svg width="8" height="8" viewBox="0 0 8 8" fill="none" xmlns="http://www.w3.org/2000/svg">
<path d="M7.42357 3.31563L4.42517 0.303635C4.19957 0.0772345 3.80037 0.0772345 3.57397 0.303635L0.575566 3.31563C0.341966 3.55083 0.342766 3.93083 0.577966 4.16443C0.813166 4.39803 1.19237 4.39803 1.42677 4.16283L3.40037 2.18123L3.40037 7.26523C3.40037 7.59723 3.66917 7.86523 4.00037 7.86523C4.33157 7.86523 4.60037 7.59723 4.60037 7.26523L4.60037 2.18123L6.57317 4.16283C6.69077 4.28043 6.84437 4.33883 6.99877 4.33883C7.15157 4.33883 7.30517 4.28043 7.42197 4.16443C7.65637 3.93083 7.65717 3.55083 7.42357 3.31563" fill="#FDFDFD"/>
</svg>
