<svg xmlns="http://www.w3.org/2000/svg" width="330" height="46" viewBox="49 642 330 46"><g data-name="Group 17121"><path d="M231 642h7v46h-7v-46" fill="#28282d" fill-rule="evenodd" data-name="Rectangle 6"/><path d="M49 642h7v46h-7v-46" fill="#28282d" fill-rule="evenodd" data-name="Rectangle 36"/><path d="M155 642h6v46h-6v-46" fill="#28282d" fill-rule="evenodd" data-name="Rectangle 21"/><path d="M250 642h6v46h-6v-46" fill="#28282d" fill-rule="evenodd" data-name="Rectangle 58"/><path d="M227 642h2v46h-2v-46" fill="#28282d" fill-rule="evenodd" data-name="Rectangle 7"/><path d="M57 642h1v46h-1v-46" fill="#28282d" fill-rule="evenodd" data-name="Rectangle 37"/><path d="M151 642h2v46h-2v-46" fill="#28282d" fill-rule="evenodd" data-name="Rectangle 22"/><path d="M246 642h2v46h-2v-46" fill="#28282d" fill-rule="evenodd" data-name="Rectangle 59"/><path d="M181 642h3v46h-3v-46" fill="#28282d" fill-rule="evenodd" data-name="Rectangle 15"/><path d="M278 642h1v46h-1v-46" fill="#28282d" fill-rule="evenodd" data-name="Rectangle 49"/><path d="M106 642h2v46h-2v-46" fill="#28282d" fill-rule="evenodd" data-name="Rectangle 23"/><path d="M178 642h3v46h-3v-46" fill="#28282d" fill-rule="evenodd" data-name="Rectangle 16"/><path d="M274 642h3v46h-3v-46" fill="#28282d" fill-rule="evenodd" data-name="Rectangle 50"/><path d="M103 642h3v46h-3v-46" fill="#28282d" fill-rule="evenodd" data-name="Rectangle 31"/><path d="M224 642h3v46h-3v-46" fill="#28282d" fill-rule="evenodd" data-name="Rectangle 8"/><path d="M318 642h3v46h-3v-46" fill="#28282d" fill-rule="evenodd" data-name="Rectangle 45"/><path d="M60 642h2v46h-2v-46" fill="#28282d" fill-rule="evenodd" data-name="Rectangle 38"/><path d="M243 642h3v46h-3v-46" fill="#28282d" fill-rule="evenodd" data-name="Rectangle 60"/><path d="M219 642h2v46h-2v-46" fill="#28282d" fill-rule="evenodd" data-name="Rectangle 9"/><path d="M314 642h3v46h-3v-46" fill="#28282d" fill-rule="evenodd" data-name="Rectangle 46"/><path d="M64 642h2v46h-2v-46" fill="#28282d" fill-rule="evenodd" data-name="Rectangle 39"/><path d="M143 642h3v46h-3v-46" fill="#28282d" fill-rule="evenodd" data-name="Rectangle 25"/><path d="M239 642h3v46h-3v-46" fill="#28282d" fill-rule="evenodd" data-name="Rectangle 61"/><path d="M208 642h5v46h-5v-46" fill="#28282d" fill-rule="evenodd" data-name="Rectangle 10"/><path d="M305 642h5v46h-5v-46" fill="#28282d" fill-rule="evenodd" data-name="Rectangle 48"/><path d="M72 642h5v46h-5v-46" fill="#28282d" fill-rule="evenodd" data-name="Rectangle 41"/><path d="M132 642h6v46h-6v-46" fill="#28282d" fill-rule="evenodd" data-name="Rectangle 26"/><path d="M185 642h5v46h-5v-46" fill="#28282d" fill-rule="evenodd" data-name="Rectangle 14"/><path d="M281 642h5v46h-5v-46" fill="#28282d" fill-rule="evenodd" data-name="Rectangle 51"/><path d="M110 642h5v46h-5v-46" fill="#28282d" fill-rule="evenodd" data-name="Rectangle 27"/><path d="M215 642h1v46h-1v-46" fill="#28282d" fill-rule="evenodd" data-name="Rectangle 11"/><path d="M310 642h3v46h-3v-46" fill="#28282d" fill-rule="evenodd" data-name="Rectangle 47"/><path d="M69 642h3v46h-3v-46" fill="#28282d" fill-rule="evenodd" data-name="Rectangle 40"/><path d="M139 642h2v46h-2v-46" fill="#28282d" fill-rule="evenodd" data-name="Rectangle 28"/><path d="M200 642h3v46h-3v-46" fill="#28282d" fill-rule="evenodd" data-name="Rectangle 12"/><path d="M297 642h1v46h-1v-46" fill="#28282d" fill-rule="evenodd" data-name="Rectangle 52"/><path d="M84 642h1v46h-1v-46" fill="#28282d" fill-rule="evenodd" data-name="Rectangle 42"/><path d="M124 642h2v46h-2v-46" fill="#28282d" fill-rule="evenodd" data-name="Rectangle 29"/><path d="M196 642h1v46h-1v-46" fill="#28282d" fill-rule="evenodd" data-name="Rectangle 13"/><path d="M291 642h3v46h-3v-46" fill="#28282d" fill-rule="evenodd" data-name="Rectangle 53"/><path d="M120 642h2v46h-2v-46" fill="#28282d" fill-rule="evenodd" data-name="Rectangle 30"/><path d="M172 642h1v46h-1v-46" fill="#28282d" fill-rule="evenodd" data-name="Rectangle 17"/><path d="M267 642h3v46h-3v-46" fill="#28282d" fill-rule="evenodd" data-name="Rectangle 54"/><path d="M96 642h1v46h-1v-46" fill="#28282d" fill-rule="evenodd" data-name="Rectangle 32"/><path d="M166 642h3v46h-3v-46" fill="#28282d" fill-rule="evenodd" data-name="Rectangle 19"/><path d="M262 642h2v46h-2v-46" fill="#28282d" fill-rule="evenodd" data-name="Rectangle 56"/><path d="M91 642h2v46h-2v-46" fill="#28282d" fill-rule="evenodd" data-name="Rectangle 33"/><path d="M162 642h3v46h-3v-46" fill="#28282d" fill-rule="evenodd" data-name="Rectangle 20"/><path d="M259 642h3v46h-3v-46" fill="#28282d" fill-rule="evenodd" data-name="Rectangle 57"/><path d="M87 642h2v46h-2v-46" fill="#28282d" fill-rule="evenodd" data-name="Rectangle 34"/><path d="M176 642h1v46h-1v-46" fill="#28282d" fill-rule="evenodd" data-name="Rectangle 18"/><path d="M273 642v46-46" fill="#28282d" fill-rule="evenodd" data-name="Rectangle 55"/><path d="M100 642h1v46h-1v-46" fill="#28282d" fill-rule="evenodd" data-name="Rectangle 35"/><path d="M324 642h7v46h-7v-46" fill="#28282d" fill-rule="evenodd" data-name="Rectangle 150"/><path d="M343 642h6v46h-6v-46" fill="#28282d" fill-rule="evenodd" data-name="Rectangle 151"/><path d="M339 642h2v46h-2v-46" fill="#28282d" fill-rule="evenodd" data-name="Rectangle 152"/><path d="M371 642h1v46h-1v-46" fill="#28282d" fill-rule="evenodd" data-name="Rectangle 153"/><path d="M367 642h3v46h-3v-46" fill="#28282d" fill-rule="evenodd" data-name="Rectangle 154"/><path d="M336 642h3v46h-3v-46" fill="#28282d" fill-rule="evenodd" data-name="Rectangle 155"/><path d="M332 642h3v46h-3v-46" fill="#28282d" fill-rule="evenodd" data-name="Rectangle 156"/><path d="M374 642h5v46h-5v-46" fill="#28282d" fill-rule="evenodd" data-name="Rectangle 157"/><path d="M360 642h3v46h-3v-46" fill="#28282d" fill-rule="evenodd" data-name="Rectangle 160"/><path d="M355 642h2v46h-2v-46" fill="#28282d" fill-rule="evenodd" data-name="Rectangle 161"/><path d="M352 642h3v46h-3v-46" fill="#28282d" fill-rule="evenodd" data-name="Rectangle 162"/><path d="M366 642v46-46" fill="#28282d" fill-rule="evenodd" data-name="Rectangle 163"/></g></svg>