<svg width="156" height="170" viewBox="0 0 156 170" fill="none" xmlns="http://www.w3.org/2000/svg">
<mask id="mask0_151_2402" style="mask-type:alpha" maskUnits="userSpaceOnUse" x="0" y="0" width="156" height="170">
<rect width="156" height="170" rx="16" fill="#FDFDFD"/>
</mask>
<g mask="url(#mask0_151_2402)">
<path d="M221.335 140.737C251.578 140.737 236.069 174 269.414 174L-40.0001 174C-10.532 174 -29.9189 151.053 1.1001 151.053C32.1191 151.053 34.4455 135.895 56.9343 135.895C79.4231 135.895 77.0966 159.895 101.912 159.895C126.727 159.895 115.87 149.789 139.135 149.789C162.399 149.789 156.971 129.789 176.357 129.789C195.744 129.789 191.091 140.737 221.335 140.737Z" fill="url(#paint0_linear_151_2402)"/>
<path d="M409 126C384.96 126 382.634 118 357.043 118C331.453 118 337.656 140.737 313.617 140.737C289.577 140.737 302.76 174 269.415 174C236.069 174 251.579 140.737 221.335 140.737C191.092 140.737 195.744 129.789 176.358 129.789C156.971 129.789 162.399 149.789 139.135 149.789C115.87 149.789 126.727 159.895 101.912 159.895C77.0967 159.895 79.4232 135.895 56.9344 135.895C34.4456 135.895 32.1192 151.053 1.10019 151.053C-29.9188 151.053 -10.5319 169.789 -40 169.789" stroke="#2B7979" stroke-linecap="round"/>
</g>
<defs>
<linearGradient id="paint0_linear_151_2402" x1="79" y1="130" x2="79" y2="174" gradientUnits="userSpaceOnUse">
<stop stop-color="#BCECDC"/>
<stop offset="1" stop-color="#ECFBF6" stop-opacity="0"/>
</linearGradient>
</defs>
</svg>
