<svg xmlns="http://www.w3.org/2000/svg" width="67.05" height="50.017" viewBox="177.55 150.85 67.05 50.017"><path d="m200.326 199.875-21.783-21.782a3.351 3.351 0 0 1 0-4.74l4.74-4.739a3.335 3.335 0 0 1 1.71-.916c.988-.198 2.05.054 2.855.755a3.4 3.4 0 0 1 .174.161l14.673 14.674 31.43-31.43a3.335 3.335 0 0 1 1.71-.916 3.348 3.348 0 0 1 3.03.916l4.738 4.74a3.335 3.335 0 0 1 .917 1.71 3.35 3.35 0 0 1-.755 2.856 3.4 3.4 0 0 1-.162.173l-38.538 38.538a3.336 3.336 0 0 1-1.71.917 3.348 3.348 0 0 1-3.03-.917Z" fill="#fff" fill-rule="evenodd" data-name="Icon awesome-check"/></svg>