<?xml version="1.0" standalone="no"?>
<!DOCTYPE svg PUBLIC "-//W3C//DTD SVG 20010904//EN"
 "http://www.w3.org/TR/2001/REC-SVG-20010904/DTD/svg10.dtd">
<svg version="1.0" xmlns="http://www.w3.org/2000/svg"
 width="404.000000pt" height="365.000000pt" viewBox="0 0 404.000000 365.000000"
 preserveAspectRatio="xMidYMid meet">

<g transform="translate(0.000000,365.000000) scale(0.100000,-0.100000)"
fill="#fff" fill-rule="evenodd" stroke="none">
<path d="M1865 3233 c-413 -20 -809 -116 -1125 -272 -407 -202 -647 -468 -706
-783 -12 -63 -15 -146 -12 -406 l3 -327 32 -92 c74 -213 221 -389 452 -545
241 -161 556 -284 891 -347 401 -75 857 -74 1262 5 626 121 1127 436 1290 809
62 142 63 149 63 535 0 404 -2 418 -80 576 -53 109 -109 186 -201 276 -332
325 -891 532 -1530 568 -173 9 -209 10 -339 3z m600 -202 c264 -40 456 -93
662 -182 370 -158 616 -383 693 -634 27 -89 30 -226 5 -310 -117 -403 -650
-719 -1385 -822 -160 -22 -641 -25 -800 -5 -540 70 -966 246 -1225 507 -129
129 -194 250 -215 393 -55 387 324 766 959 961 141 43 333 83 481 100 52 6
111 13 130 15 19 2 154 3 300 1 202 -3 296 -8 395 -24z m-2165 -1580 l100 -99
0 -112 c0 -103 -1 -111 -17 -99 -47 40 -136 187 -162 270 -13 40 -30 139 -25
139 2 0 49 -45 104 -99z m3530 3 c-16 -76 -89 -218 -144 -279 l-45 -50 -1 114
0 114 98 97 c106 106 113 106 92 4z m-3100 -296 c132 -64 238 -106 370 -146
l65 -20 3 -146 c2 -123 0 -146 -12 -146 -18 0 -176 57 -271 98 -90 39 -231
116 -274 150 l-33 27 0 120 c0 140 0 138 10 133 4 -2 68 -33 142 -70z m2734
-58 c-1 -72 -3 -132 -5 -134 -84 -70 -436 -235 -557 -261 l-33 -7 3 147 3 147
65 20 c130 39 267 94 385 154 66 33 125 61 130 62 6 1 10 -46 9 -128z m-1925
-181 c74 -11 191 -23 260 -27 l126 -7 3 -152 3 -153 -33 0 c-106 0 -376 33
-506 61 l-52 11 0 150 0 151 33 -7 c17 -4 92 -16 166 -27z m1161 -118 l0 -149
-72 -16 c-95 -21 -276 -44 -411 -52 l-107 -7 0 151 c0 177 -18 157 153 167
113 6 307 30 367 44 74 19 70 27 70 -138z"/>
<path d="M1875 2900 c-299 -18 -545 -80 -780 -195 -325 -159 -514 -391 -515
-628 0 -48 4 -62 25 -82 46 -47 127 -25 139 37 2 13 9 52 16 88 15 85 51 149
127 231 201 214 592 356 1033 376 130 6 136 7 162 34 50 50 30 119 -40 139
-20 5 -39 9 -42 8 -3 0 -59 -4 -125 -8z"/>
<path d="M3394 2128 c-26 -12 -44 -48 -44 -87 0 -15 -7 -50 -15 -78 -81 -273
-511 -483 -1040 -510 -106 -6 -122 -9 -142 -29 -32 -32 -31 -87 2 -119 22 -23
31 -25 124 -25 203 0 479 52 665 126 172 69 280 138 392 249 122 121 184 251
184 383 0 43 -5 58 -25 77 -26 26 -64 31 -101 13z"/>
</g>
</svg>
