<svg xmlns="http://www.w3.org/2000/svg" width="13.867" height="19.183" viewBox="51.417 249.783 13.867 19.183"><path d="M59.94 266.004v2.934h-1.772v-2.888c-.613 0-1.081-.004-1.403-.012v2.9h-1.772v-2.934a21.142 21.142 0 0 1-.117 0l-.322-.003a99.327 99.327 0 0 1-.183-.003 93.921 93.921 0 0 0-.194-.002 38.933 38.933 0 0 0-.438-.004h-2.302l.357-2.105h1.277c.384 0 .606-.196.668-.587v-4.626h.184a.685.685 0 0 0-.048-.006 1.473 1.473 0 0 0-.136-.005v-3.302c-.078-.405-.3-.652-.668-.743a1.487 1.487 0 0 0-.356-.04h-1.278v-1.887l2.44.012a78.152 78.152 0 0 0 .346 0c.222-.002.413-.004.572-.007a17.666 17.666 0 0 0 .198-.005v-2.9h1.772v2.843a129.977 129.977 0 0 1 .441-.01c.407-.009.725-.013.954-.013a12.198 12.198 0 0 1 .008 0v-2.82h1.772v2.9a12.325 12.325 0 0 1 .807.097c.252.04.488.086.71.139a7.37 7.37 0 0 1 .094.023 5.232 5.232 0 0 1 1.3.518 2.636 2.636 0 0 1 .95.897 2.733 2.733 0 0 1 .347.852 3.501 3.501 0 0 1 .073.466 4.532 4.532 0 0 1 .021.357c.022 1.112-.407 1.938-1.288 2.477a3.545 3.545 0 0 1-.24.134 4.566 4.566 0 0 1 .896.31c.376.178.693.405.949.678a2.748 2.748 0 0 1 .168.198 2.447 2.447 0 0 1 .417.857c.113.408.15.883.115 1.424a6.635 6.635 0 0 1-.014.18 5.002 5.002 0 0 1-.134.769 3.813 3.813 0 0 1-.24.67 3.481 3.481 0 0 1-.38.63 2.864 2.864 0 0 1-.362.394 3.383 3.383 0 0 1-.601.427 4.455 4.455 0 0 1-.515.246 6.8 6.8 0 0 1-1.398.397 11.405 11.405 0 0 1-.732.101c-.294.032-.608.056-.943.072Zm-3.14-5.995v3.89a5.627 5.627 0 0 1 .042 0l.363.005a146.327 146.327 0 0 1 .02 0 51.69 51.69 0 0 0 .16.003l.37.003a17.123 17.123 0 0 0 .022 0c.112 0 .257-.004.436-.01a27.122 27.122 0 0 0 .174-.007 16 16 0 0 0 .278-.015c.146-.009.278-.02.395-.032a6.284 6.284 0 0 0 .225-.027c.082-.011.17-.025.26-.04a11.516 11.516 0 0 0 .171-.03 5.744 5.744 0 0 0 .286-.06c.09-.022.173-.044.25-.068a2.996 2.996 0 0 0 .103-.033 3.635 3.635 0 0 0 .337-.138 4.419 4.419 0 0 0 .21-.104 1.886 1.886 0 0 0 .24-.15 1.385 1.385 0 0 0 .214-.195c.115-.13.209-.284.282-.46a1.45 1.45 0 0 0 .1-.41 1.77 1.77 0 0 0 .009-.177 1.697 1.697 0 0 0-.049-.414 1.403 1.403 0 0 0-.124-.323 1.855 1.855 0 0 0-.233-.342 1.578 1.578 0 0 0-.192-.187 2.062 2.062 0 0 0-.555-.311 3.179 3.179 0 0 0-.107-.04 5.586 5.586 0 0 0-.754-.213 4.784 4.784 0 0 0-.281-.047 7.083 7.083 0 0 0-.27-.031 9.766 9.766 0 0 0-.3-.025c-.278-.02-.507-.03-.686-.034a5.816 5.816 0 0 0-.108 0 17.811 17.811 0 0 0-.154 0c-.142.001-.307.004-.494.008a53.692 53.692 0 0 0-.094.003 141.758 141.758 0 0 1-.158.004c-.21.005-.339.007-.389.007Zm0-5.304v3.532l.303.004a195.58 195.58 0 0 1 .093.002 22.006 22.006 0 0 0 .142.002c.146.001.267.001.365-.001a5.232 5.232 0 0 0 .028-.001 17.523 17.523 0 0 0 .11-.004c.12-.004.276-.01.465-.019.184-.008.345-.022.483-.04a3.133 3.133 0 0 0 .15-.023 8.66 8.66 0 0 0 .202-.04c.12-.024.25-.053.39-.087a1.95 1.95 0 0 0 .559-.213 3.119 3.119 0 0 0 .374-.267 3.47 3.47 0 0 0 .052-.043c.138-.12.241-.267.31-.443a1.507 1.507 0 0 0 .095-.4 1.854 1.854 0 0 0 .009-.187 1.711 1.711 0 0 0-.036-.358 1.356 1.356 0 0 0-.108-.315 1.795 1.795 0 0 0-.17-.283 1.428 1.428 0 0 0-.18-.2 1.382 1.382 0 0 0-.225-.166 1.995 1.995 0 0 0-.25-.125 2.518 2.518 0 0 0-.078-.032 4.048 4.048 0 0 0-.595-.182 2.84 2.84 0 0 0-.038-.008 6.336 6.336 0 0 0-.708-.092 6.894 6.894 0 0 0-.65-.029 2.868 2.868 0 0 0-.017 0 50.647 50.647 0 0 1-.132.003c-.13.003-.28.006-.452.008a139.938 139.938 0 0 1-.037.001 179.052 179.052 0 0 1-.13.002l-.325.004Z" fill="#fff" fill-rule="evenodd" data-name="Icon metro-bitcoin"/></svg>