<svg xmlns="http://www.w3.org/2000/svg" width="12.05" height="18.067" viewBox="0 0 12.05 18.067">
  <path id="Icon_ionic-ios-arrow-round-back" data-name="Icon ionic-ios-arrow-round-back" d="M14.427,11.482a.82.82,0,0,1,.006,1.155l-3.809,3.822H25.14a.816.816,0,0,1,0,1.632H10.624l3.815,3.822a.826.826,0,0,1-.006,1.155.812.812,0,0,1-1.148-.006L8.114,17.852h0a.916.916,0,0,1-.169-.257.779.779,0,0,1-.063-.314.818.818,0,0,1,.232-.571L13.285,11.5A.8.8,0,0,1,14.427,11.482Z" transform="translate(23.301 -7.882) rotate(90)" fill="#2f4858"/>
</svg>
