<svg width="17" height="17" viewBox="0 0 17 17" fill="none" xmlns="http://www.w3.org/2000/svg">
<path d="M15.581 8.49901C15.581 9.96552 15.1461 11.3991 14.3314 12.6185C13.5167 13.8378 12.3587 14.7882 11.0038 15.3495C9.64897 15.9107 8.15811 16.0576 6.71977 15.7716C5.28143 15.4856 3.9602 14.7795 2.92316 13.7426C1.88611 12.7057 1.17982 11.3845 0.893598 9.94622C0.607376 8.50792 0.754075 7.01704 1.31515 5.66211C1.87622 4.30718 2.82646 3.14904 4.04572 2.33415C5.26498 1.51926 6.69849 1.08421 8.165 1.08401C9.13883 1.08388 10.1032 1.27558 11.0029 1.64816C11.9026 2.02074 12.7202 2.56691 13.4088 3.25546C14.0975 3.94402 14.6438 4.76149 15.0165 5.66119C15.3892 6.56088 15.581 7.52518 15.581 8.49901Z"  stroke-width="1.5" stroke-linecap="round" stroke-linejoin="round"/>
<path d="M5.199 8.49902L8.165 11.465L11.131 8.49902"  stroke-width="1.5" stroke-linecap="round" stroke-linejoin="round"/>
<path d="M8.165 5.53301V11.465" stroke-width="1.5" stroke-linecap="round" stroke-linejoin="round"/>
</svg>
