<svg width="17" height="17" viewBox="0 0 17 17" fill="none" xmlns="http://www.w3.org/2000/svg">
<path d="M0.750995 8.49902C0.750995 7.03251 1.18585 5.59893 2.00058 4.37957C2.8153 3.1602 3.97331 2.2098 5.32817 1.64855C6.68302 1.08729 8.17388 0.940392 9.61222 1.22642C11.0506 1.51245 12.3718 2.21856 13.4088 3.25547C14.4459 4.29237 15.1522 5.61351 15.4384 7.05181C15.7246 8.49011 15.5779 9.98099 15.0168 11.3359C14.4558 12.6909 13.5055 13.849 12.2863 14.6639C11.067 15.4788 9.6335 15.9138 8.16699 15.914C7.19316 15.9141 6.22883 15.7224 5.32909 15.3499C4.42934 14.9773 3.6118 14.4311 2.92315 13.7426C2.2345 13.054 1.68822 12.2365 1.31552 11.3368C0.942822 10.4371 0.750995 9.47285 0.750995 8.49902Z"  stroke-width="1.5" stroke-linecap="round" stroke-linejoin="round"/>
<path d="M11.133 8.49902L8.167 5.53302L5.201 8.49902"  stroke-width="1.5" stroke-linecap="round" stroke-linejoin="round"/>
<path d="M8.16699 11.465L8.16699 5.53302"  stroke-width="1.5" stroke-linecap="round" stroke-linejoin="round"/>
</svg>
