<svg id="Layer_1" data-name="Layer 1" xmlns="http://www.w3.org/2000/svg" xmlns:xlink="http://www.w3.org/1999/xlink" viewBox="0 0 2880 2120.44"><defs><style>.cls-1{fill:url(#linear-gradient);}.cls-2{fill:url(#linear-gradient-2);}.cls-3{fill:url(#New_Gradient_Swatch_1);}.cls-4{fill:url(#linear-gradient-3);}.cls-5{font-size:540px;fill:#2f4858;font-family:Rapor-Regular, Rapor;letter-spacing:-0.04em;}.cls-6{letter-spacing:-0.05em;}.cls-7{letter-spacing:-0.05em;}.cls-8{letter-spacing:-0.03em;}.cls-9{letter-spacing:-0.04em;}.cls-10{letter-spacing:-0.04em;}.cls-11{letter-spacing:-0.02em;}.cls-12{fill:none;}</style><linearGradient id="linear-gradient" x1="1784.12" y1="1192.14" x2="1058.68" y2="773.31" gradientUnits="userSpaceOnUse"><stop offset="0" stop-color="#cce0f4"/><stop offset="0" stop-color="#c3dbf2"/><stop offset="0" stop-color="#a9ceeb"/><stop offset="0" stop-color="#80b8e0"/><stop offset="0" stop-color="#469ad1"/><stop offset="0" stop-color="#0075be"/><stop offset="0" stop-color="#007261"/><stop offset="0.99" stop-color="#358873"/></linearGradient><linearGradient id="linear-gradient-2" x1="1108.37" y1="1428.68" x2="862.47" y2="1428.68" gradientUnits="userSpaceOnUse"><stop offset="0" stop-color="#cce0f4"/><stop offset="0" stop-color="#c3dbf2"/><stop offset="0" stop-color="#a9ceeb"/><stop offset="0" stop-color="#80b8e0"/><stop offset="0" stop-color="#469ad1"/><stop offset="0" stop-color="#0075be"/><stop offset="0" stop-color="#a6d49f"/><stop offset="0.99" stop-color="#8ac680"/></linearGradient><linearGradient id="New_Gradient_Swatch_1" x1="2007.93" y1="1033.29" x2="1074.87" y2="1033.29" xlink:href="#linear-gradient"/><linearGradient id="linear-gradient-3" x1="1138.83" y1="1586.86" x2="924.01" y2="1214.79" xlink:href="#linear-gradient-2"/></defs><title>Prosprr Logo Name</title><path class="cls-1" d="M1145.42,1725.45a1926.08,1926.08,0,0,0-6.26-310.79c-5.4-53.43-11.61-92.49-17.82-123.89-20-101-30.69-172.07-33.81-188.36-15.71-82-49.58-407.87,151.21-607.42,113.1-112.4,253-137.34,315.57-148.5,220.81-39.38,395.85,42.53,456.12,74.25a1620.19,1620.19,0,0,1,1.79,181.77c-4.21,91.23-5.57,157.62-28.16,224.3-51.69,152.57-169.68,244.69-187.75,258-197.12,145.29-435.79,104-474.08,96.75a807.48,807.48,0,0,1,29.49-153c33.92-114.93,85.22-194.28,107.12-226,58.09-84.08,118.14-135,156.46-167.07,119.28-99.77,226.55-141.65,224.48-145.63-2.55-4.91-157,74.24-187.42,92.08-25.59,15-50.13,31.07-50.13,31.07h0c-7.75,5.28-16,11.14-24.69,17.66-58.79,44.16-95.88,86.33-122.32,116.92-19.77,22.87-54.53,63.45-89.19,121.26-20.24,33.74-69,120.92-95.12,243.87-26.94,126.61-3,164.43-13.61,278.55C1249.72,1472.82,1225,1588.42,1145.42,1725.45Z" transform="translate(0 -172)"/><path class="cls-2" d="M869.12,1246.47c-5.76,23.63-15.5,78.56,10.61,135.25,17.09,37.11,42.72,60.16,55.69,71.6,50.21,44.28,81.83,36.4,119.33,74.25,15.53,15.68,34.68,41.83,45.38,86.29a445.54,445.54,0,0,0,3.13-152.46c-9.67-62.72-21.67-140.56-85.63-185.76C963.48,1237.38,899.5,1241.89,869.12,1246.47Z" transform="translate(0 -172)"/><path class="cls-3" d="M1367.22,871.47c6.58-10.94,37.67-62.08,89.63-121.26a909.9,909.9,0,0,1,149.61-136c12.26-8.89,54-38.7,133.64-80.52,63.24-33.22,153.07-75.45,267.83-114-66.24-33.82-237.46-108.66-451.5-70.69-62.92,11.16-203.48,36.1-317.14,148.5C1037.5,697.11,1071.55,1023,1087.33,1105c3.14,16.29,13.91,87.38,34,188.35,6.24,31.41,12.48,70.46,17.91,123.9a1916.28,1916.28,0,0,1,6.29,310.79c79.93-137,104.82-252.64,112.44-334.14,10.67-114.11-13.4-151.94,13.68-278.55C1297.92,992.39,1346.88,905.21,1367.22,871.47Z" transform="translate(0 -172)"/><path class="cls-4" d="M916.85,1275.64c65.53,42.71,101.44,98.62,119.34,132.6a806.89,806.89,0,0,1,53,145.85c5.09,19.91,9.07,38.78,11.87,54.55a444.7,444.7,0,0,0,2.16-147.24c-9.67-62.72-21.67-140.56-85.63-185.76-54.15-38.26-118.13-33.75-148.51-29.17-.23,1-.47,2-.71,3A338.06,338.06,0,0,1,916.85,1275.64Z" transform="translate(0 -172)"/><text class="cls-5" transform="translate(654.21 2001.64)">P<tspan class="cls-6" x="302.78" y="0">r</tspan><tspan class="cls-7" x="460.83" y="0">o</tspan><tspan class="cls-8" x="728.07" y="0">s</tspan><tspan class="cls-9" x="952.33" y="0">p</tspan><tspan class="cls-10" x="1233.45" y="0">r</tspan><tspan class="cls-11" x="1397.71" y="0">r</tspan></text><line class="cls-12" x2="2880"/></svg>