<svg width="180" height="200" viewBox="0 0 180 200" fill="none" xmlns="http://www.w3.org/2000/svg">
<path d="M59.3162 146.448C59.9762 135.529 59.7562 124.578 58.6561 113.691C58.0904 108.063 57.4408 103.942 56.7912 100.632C54.6959 89.9873 53.5748 82.4936 53.25 80.7756C51.6052 72.1331 48.0535 37.7845 69.0912 16.7579C80.9406 4.91136 95.5978 2.287 102.156 1.10656C125.289 -3.04606 143.624 5.5859 149.942 8.9375C150.361 15.314 150.424 21.7115 150.13 28.0986C149.69 37.7107 149.544 44.709 147.176 51.7389C141.759 67.8224 129.396 77.5294 127.5 78.9312C106.85 94.2453 81.8416 89.8924 77.8289 89.1336C78.3423 83.674 79.3795 78.2672 80.9196 73.0079C84.4713 60.8979 89.846 52.5294 92.1404 49.1884C98.2275 40.3245 104.514 34.9599 108.537 31.5766C121.036 21.0581 132.278 16.6525 132.058 16.2309C131.785 15.7145 115.609 24.0513 112.424 25.9379C109.742 27.5189 107.175 29.2158 107.175 29.2158C106.358 29.7744 105.499 30.3857 104.587 31.0813C98.4266 35.7398 94.5396 40.177 91.7737 43.4021C89.6993 45.8157 86.0638 50.0948 82.4283 56.1867C80.312 59.7385 75.1992 68.9291 72.4647 81.8928C69.6465 95.236 72.1504 99.22 71.0399 111.256C70.2436 119.825 67.6558 132.009 59.3162 146.448Z" fill="url(#paint0_linear_2_24)"/>
<path d="M35.165 98.4534C42.0292 102.926 45.7914 108.781 47.6673 112.343C50.0043 117.245 51.8696 122.356 53.2215 127.614C53.756 129.699 54.1752 131.678 54.4686 133.333C55.4013 128.243 55.4746 123.026 54.6991 117.915C53.6826 111.347 52.4251 103.188 45.7286 98.4534C40.0486 94.4417 33.3521 94.9131 30.1662 95.3949C30.1453 95.4996 30.1139 95.6044 30.0929 95.7091C31.8535 96.4947 33.5512 97.406 35.165 98.4534Z" fill="url(#paint1_linear_2_24)"/>
<path d="M29.7109 95.3992C29.0923 97.9055 28.0576 103.746 30.8415 109.768C32.6655 113.707 35.3961 116.161 36.7827 117.371C42.1372 122.076 45.5078 121.237 49.5077 125.262C51.1609 126.929 53.2089 129.701 54.3502 134.426C55.3955 129.085 55.5128 123.615 54.6808 118.231C53.6462 111.573 52.3662 103.3 45.5504 98.5002C39.7799 94.4328 32.9535 94.9107 29.7109 95.3992Z" fill="url(#paint2_linear_2_24)"/>
<path d="M82.4354 56.1758C83.1235 55.0269 86.3657 49.6306 91.7763 43.3911C96.4363 38.037 101.659 33.2309 107.372 29.0572C108.655 28.1191 113.002 24.9783 121.3 20.5727C127.889 17.0736 137.261 12.6153 149.219 8.55749C142.317 4.99508 124.459 -2.89914 102.149 1.10594C95.5919 2.28638 80.9342 4.91076 69.0913 16.7574C48.0535 37.7946 51.6084 72.1434 53.2452 80.7859C53.5683 82.5039 54.6943 89.9976 56.7897 100.632C57.4361 103.942 58.0928 108.063 58.6558 113.691C59.7504 124.578 59.9694 135.529 59.3126 146.448C67.6422 132.009 70.2381 119.825 71.0304 111.235C72.1459 99.2093 69.6334 95.2253 72.4586 81.882C75.2108 68.9182 80.3191 59.7276 82.4354 56.1758Z" fill="url(#paint3_linear_2_24)"/>
<path d="M0 189.071V147.541H15.6629C18.4197 147.541 20.5251 147.673 21.979 147.938C24.0183 148.278 25.7272 148.929 27.1056 149.892C28.484 150.837 29.5886 152.168 30.4194 153.887C31.2691 155.605 31.694 157.494 31.694 159.552C31.694 163.084 30.5705 166.077 28.3235 168.533C26.0765 170.969 22.0168 172.187 16.1444 172.187H5.49476V189.071H0ZM5.49476 167.286H16.2294C19.7792 167.286 22.3 166.625 23.7917 165.303C25.2834 163.981 26.0293 162.121 26.0293 159.722C26.0293 157.985 25.5856 156.502 24.6981 155.275C23.8295 154.028 22.6777 153.207 21.2426 152.81C20.3174 152.565 18.6085 152.442 16.1161 152.442H5.49476V167.286Z" fill="#2F4858"/>
<path d="M34.694 189.071V159.146H38.9898V163.683C40.0859 161.56 41.0935 160.161 42.0128 159.484C42.9497 158.808 43.9751 158.47 45.0888 158.47C46.6975 158.47 48.3328 159.015 49.9945 160.104L48.3505 164.81C47.1837 164.077 46.0169 163.711 44.8502 163.711C43.8071 163.711 42.8702 164.049 42.0393 164.725C41.2084 165.383 40.6162 166.303 40.2626 167.487C39.7323 169.29 39.4671 171.263 39.4671 173.404V189.071H34.694Z" fill="#2F4858"/>
<path d="M51.9016 173.77C51.9016 168.349 53.4628 164.333 56.5852 161.723C59.1935 159.554 62.3729 158.47 66.1236 158.47C70.2931 158.47 73.701 159.793 76.3474 162.44C78.9938 165.068 80.3169 168.707 80.3169 173.357C80.3169 177.125 79.7267 180.093 78.5463 182.262C77.385 184.412 75.681 186.084 73.4344 187.279C71.2069 188.474 68.77 189.071 66.1236 189.071C61.8779 189.071 58.4414 187.757 55.8141 185.129C53.2058 182.501 51.9016 178.714 51.9016 173.77ZM57.1849 173.77C57.1849 177.52 58.0321 180.332 59.7266 182.206C61.421 184.063 63.5533 184.991 66.1236 184.991C68.6748 184.991 70.7976 184.054 72.492 182.179C74.1865 180.304 75.0337 177.446 75.0337 173.605C75.0337 169.984 74.177 167.246 72.4635 165.39C70.769 163.515 68.6557 162.578 66.1236 162.578C63.5533 162.578 61.421 163.506 59.7266 165.362C58.0321 167.218 57.1849 170.021 57.1849 173.77Z" fill="#2F4858"/>
<path d="M82.3169 179.67L87.1693 178.898C87.4419 180.865 88.1961 182.372 89.4319 183.419C90.6859 184.467 92.4306 184.991 94.6659 184.991C96.9195 184.991 98.5914 184.531 99.6818 183.612C100.772 182.675 101.317 181.582 101.317 180.332C101.317 179.211 100.836 178.328 99.8727 177.685C99.2002 177.244 97.5283 176.684 94.8567 176.004C91.2584 175.085 88.7595 174.294 87.3601 173.633C85.9789 172.953 84.9249 172.024 84.1979 170.848C83.4891 169.654 83.1348 168.339 83.1348 166.906C83.1348 165.601 83.4255 164.397 84.0071 163.294C84.6068 162.173 85.4155 161.245 86.4333 160.51C87.1966 159.94 88.2325 159.462 89.541 159.076C90.8676 158.672 92.2852 158.47 93.7936 158.47C96.0653 158.47 98.0553 158.801 99.7636 159.462C101.49 160.124 102.762 161.025 103.58 162.164C104.398 163.285 104.961 164.792 105.27 166.685L100.472 167.347C100.254 165.84 99.6182 164.664 98.5642 163.818C97.5283 162.973 96.0562 162.55 94.148 162.55C91.8944 162.55 90.2861 162.927 89.3229 163.68C88.3597 164.434 87.8781 165.316 87.8781 166.327C87.8781 166.97 88.078 167.549 88.4778 168.064C88.8776 168.597 89.5046 169.038 90.3588 169.387C90.8495 169.571 92.2943 169.994 94.6932 170.655C98.1643 171.593 100.581 172.364 101.944 172.971C103.326 173.559 104.407 174.423 105.188 175.562C105.97 176.702 106.361 178.117 106.361 179.808C106.361 181.462 105.879 183.024 104.916 184.495C103.971 185.947 102.599 187.077 100.8 187.886C99.0003 188.676 96.9649 189.071 94.6932 189.071C90.9312 189.071 88.0598 188.281 86.0789 186.7C84.1161 185.12 82.8621 182.776 82.3169 179.67Z" fill="#2F4858"/>
<path d="M110.454 200V159.138H115.119V162.976C116.219 161.474 117.461 160.352 118.846 159.61C120.23 158.85 121.909 158.47 123.881 158.47C126.461 158.47 128.736 159.119 130.709 160.417C132.681 161.715 134.17 163.551 135.175 165.925C136.18 168.28 136.683 170.867 136.683 173.686C136.683 176.708 136.124 179.434 135.005 181.864C133.905 184.274 132.293 186.129 130.168 187.427C128.063 188.706 125.844 189.346 123.511 189.346C121.804 189.346 120.268 188.994 118.903 188.289C117.556 187.585 116.447 186.694 115.574 185.619V200H110.454ZM115.091 174.075C115.091 177.877 115.878 180.686 117.452 182.503C119.026 184.321 120.932 185.229 123.17 185.229C125.446 185.229 127.39 184.293 129.002 182.42C130.633 180.528 131.449 177.608 131.449 173.658C131.449 169.893 130.652 167.075 129.059 165.202C127.485 163.329 125.598 162.392 123.398 162.392C121.217 162.392 119.282 163.393 117.594 165.396C115.925 167.38 115.091 170.273 115.091 174.075Z" fill="#2F4858"/>
<path d="M142.962 189.071V159.146H147.564V163.683C148.739 161.56 149.818 160.161 150.803 159.484C151.807 158.808 152.906 158.47 154.099 158.47C155.823 158.47 157.575 159.015 159.355 160.104L157.594 164.81C156.344 164.077 155.093 163.711 153.843 163.711C152.726 163.711 151.722 164.049 150.832 164.725C149.942 165.383 149.307 166.303 148.928 167.487C148.36 169.29 148.076 171.263 148.076 173.404V189.071H142.962Z" fill="#2F4858"/>
<path d="M163.448 189.071V159.146H168.051V163.683C169.225 161.56 170.305 160.161 171.29 159.484C172.294 158.808 173.392 158.47 174.585 158.47C176.309 158.47 178.061 159.015 179.842 160.104L178.08 164.81C176.83 164.077 175.58 163.711 174.33 163.711C173.212 163.711 172.208 164.049 171.318 164.725C170.428 165.383 169.793 166.303 169.415 167.487C168.846 169.29 168.562 171.263 168.562 173.404V189.071H163.448Z" fill="#2F4858"/>
<defs>
<linearGradient id="paint0_linear_2_24" x1="126.235" y1="90.2448" x2="50.0048" y2="46.4954" gradientUnits="userSpaceOnUse">
<stop stop-color="#007261"/>
<stop offset="0.99" stop-color="#358873"/>
</linearGradient>
<linearGradient id="paint1_linear_2_24" x1="58.4285" y1="131.056" x2="35.9325" y2="92.0734" gradientUnits="userSpaceOnUse">
<stop stop-color="#A6D49F"/>
<stop offset="0.99" stop-color="#8AC680"/>
</linearGradient>
<linearGradient id="paint2_linear_2_24" x1="55.2312" y1="114.746" x2="29.0039" y2="114.746" gradientUnits="userSpaceOnUse">
<stop stop-color="#A6D49F"/>
<stop offset="0.99" stop-color="#8AC680"/>
</linearGradient>
<linearGradient id="paint3_linear_2_24" x1="149.232" y1="73.2266" x2="51.9598" y2="73.2266" gradientUnits="userSpaceOnUse">
<stop stop-color="#007261"/>
<stop offset="0.99" stop-color="#358873"/>
</linearGradient>
</defs>
</svg>
