<?xml version="1.0" encoding="utf-8"?>
<!-- Generator: Adobe Illustrator 23.0.0, SVG Export Plug-In . SVG Version: 6.00 Build 0)  -->
<svg version="1.1" id="Layer_1" xmlns="http://www.w3.org/2000/svg" xmlns:xlink="http://www.w3.org/1999/xlink" x="0px" y="0px"
	 viewBox="0 0 2880 2880" style="enable-background:new 0 0 2880 2880;" xml:space="preserve">
<style type="text/css">
	.st0{fill:url(#SVGID_1_);}
	.st1{fill:url(#SVGID_2_);}
	.st2{fill:url(#SVGID_3_);}
	.st3{display:none;fill:url(#SVGID_4_);}
	.st4{fill:#2F4858;}
	.st5{font-family:'Rapor-Regular';}
	.st6{font-size:540px;}
	.st7{letter-spacing:-13;}
	.st8{display:none;fill:none;}
</style>
<linearGradient id="SVGID_1_" gradientUnits="userSpaceOnUse" x1="1784.1222" y1="1192.1421" x2="1058.6821" y2="773.3091">
	<stop  offset="0" style="stop-color:#CCE0F4"/>
	<stop  offset="0" style="stop-color:#C3DBF2"/>
	<stop  offset="0" style="stop-color:#A9CEEB"/>
	<stop  offset="0" style="stop-color:#80B8E0"/>
	<stop  offset="0" style="stop-color:#469AD1"/>
	<stop  offset="0" style="stop-color:#0075BE"/>
	<stop  offset="0" style="stop-color:#007261"/>
	<stop  offset="0.9944" style="stop-color:#358873"/>
</linearGradient>
<path class="st0" d="M1145.4,1725.5c4.4-71.7,7-180-6.3-310.8c-5.4-53.4-11.6-92.5-17.8-123.9c-20-101-30.7-172.1-33.8-188.4
	c-15.7-82-49.6-407.9,151.2-607.4c113.1-112.4,253-137.3,315.6-148.5c220.8-39.4,395.8,42.5,456.1,74.3c3,44.8,5.2,107.3,1.8,181.8
	c-4.2,91.2-5.6,157.6-28.2,224.3c-51.7,152.6-169.7,244.7-187.8,258c-197.1,145.3-435.8,104-474.1,96.8c3.7-39.6,11.7-92.6,29.5-153
	c33.9-114.9,85.2-194.3,107.1-226c58.1-84.1,118.1-135,156.5-167.1c119.3-99.8,226.6-141.7,224.5-145.6
	c-2.5-4.9-157,74.2-187.4,92.1c-25.6,15-50.1,31.1-50.1,31.1c0,0,0,0,0,0c-7.8,5.3-16,11.1-24.7,17.7
	c-58.8,44.2-95.9,86.3-122.3,116.9c-19.8,22.9-54.5,63.4-89.2,121.3c-20.2,33.7-69,120.9-95.1,243.9c-26.9,126.6-3,164.4-13.6,278.5
	C1249.7,1472.8,1225,1588.4,1145.4,1725.5z"/>
<linearGradient id="SVGID_2_" gradientUnits="userSpaceOnUse" x1="1108.3739" y1="1428.6768" x2="862.4706" y2="1428.6768">
	<stop  offset="0" style="stop-color:#CCE0F4"/>
	<stop  offset="0" style="stop-color:#C3DBF2"/>
	<stop  offset="0" style="stop-color:#A9CEEB"/>
	<stop  offset="0" style="stop-color:#80B8E0"/>
	<stop  offset="0" style="stop-color:#469AD1"/>
	<stop  offset="0" style="stop-color:#0075BE"/>
	<stop  offset="0" style="stop-color:#A6D49F"/>
	<stop  offset="0.9944" style="stop-color:#8AC680"/>
</linearGradient>
<path class="st1" d="M869.1,1246.5c-5.8,23.6-15.5,78.6,10.6,135.2c17.1,37.1,42.7,60.2,55.7,71.6c50.2,44.3,81.8,36.4,119.3,74.3
	c15.5,15.7,34.7,41.8,45.4,86.3c6.5-33.4,13.1-87.5,3.1-152.5c-9.7-62.7-21.7-140.6-85.6-185.8
	C963.5,1237.4,899.5,1241.9,869.1,1246.5z"/>
<linearGradient id="SVGID_3_" gradientUnits="userSpaceOnUse" x1="2007.9286" y1="1033.2908" x2="1074.8716" y2="1033.2908">
	<stop  offset="0" style="stop-color:#CCE0F4"/>
	<stop  offset="0" style="stop-color:#C3DBF2"/>
	<stop  offset="0" style="stop-color:#A9CEEB"/>
	<stop  offset="0" style="stop-color:#80B8E0"/>
	<stop  offset="0" style="stop-color:#469AD1"/>
	<stop  offset="0" style="stop-color:#0075BE"/>
	<stop  offset="0" style="stop-color:#007261"/>
	<stop  offset="0.9944" style="stop-color:#358873"/>
</linearGradient>
<path class="st2" d="M1367.2,871.5c6.6-10.9,37.7-62.1,89.6-121.3c26.9-30.7,76.7-83.2,149.6-136c12.3-8.9,54-38.7,133.6-80.5
	c63.2-33.2,153.1-75.5,267.8-114c-66.2-33.8-237.5-108.7-451.5-70.7c-62.9,11.2-203.5,36.1-317.1,148.5
	c-201.8,199.6-167.7,525.4-152,607.4c3.1,16.3,13.9,87.4,34,188.4c6.2,31.4,12.5,70.5,17.9,123.9c13.3,130.8,10.7,239.1,6.3,310.8
	c79.9-137,104.8-252.6,112.4-334.1c10.7-114.1-13.4-151.9,13.7-278.5C1297.9,992.4,1346.9,905.2,1367.2,871.5z"/>
<linearGradient id="SVGID_4_" gradientUnits="userSpaceOnUse" x1="1138.8267" y1="1586.8625" x2="924.0078" y2="1214.7853">
	<stop  offset="0" style="stop-color:#CCE0F4"/>
	<stop  offset="0" style="stop-color:#C3DBF2"/>
	<stop  offset="0" style="stop-color:#A9CEEB"/>
	<stop  offset="0" style="stop-color:#80B8E0"/>
	<stop  offset="0" style="stop-color:#469AD1"/>
	<stop  offset="0" style="stop-color:#0075BE"/>
	<stop  offset="0" style="stop-color:#A6D49F"/>
	<stop  offset="0.9944" style="stop-color:#8AC680"/>
</linearGradient>
<path class="st3" d="M916.9,1275.6c65.5,42.7,101.4,98.6,119.3,132.6c28.1,59.3,43.8,109.8,53,145.9c5.1,19.9,9.1,38.8,11.9,54.6
	c6.1-33.6,11.7-85.5,2.2-147.2c-9.7-62.7-21.7-140.6-85.6-185.8c-54.1-38.3-118.1-33.8-148.5-29.2c-0.2,0.9-0.5,2-0.7,3
	C883.7,1256.2,900.1,1264.7,916.9,1275.6z"/>
<text transform="matrix(1 0 0 1 593.2063 2126.6423)" class="st4 st5 st6 st7">Prosppr</text>
<line class="st8" x1="0" y1="172" x2="2880" y2="172"/>
</svg>
