<svg xmlns="http://www.w3.org/2000/svg" width="133.217" height="183.317" viewBox="266.367 97.167 133.217 183.317"><g data-name="Group 23982"><path d="m335.063 238.674-3.32-.246c.017-.24 1.704-24.302-4.407-48.1a87.292 87.292 0 0 0-3.71-11.176c-7.114-17.477-17.93-28.914-18.06-29.05l2.404-2.304c.601.628 13.539 14.289 20.628 35.128a89.718 89.718 0 0 1 1.962 6.574 122.547 122.547 0 0 1 .183.722c6.034 24.105 4.338 48.21 4.32 48.452Z" fill="#3f4f21" fill-rule="evenodd" data-name="Path 62601"/><path d="m346.938 235.008-2.91-1.619a1.51 1.51 0 0 0-.056.112c-.058.13-.08.227-.085.257a.248.248 0 0 0-.002.01c.27-1.746-1.16-21.474-5.39-44.747a259.401 259.401 0 0 0-1.585-7.938c-4.491-20.937-12.402-48.196-13.87-53.205a326.863 326.863 0 0 0-.238-.806l3.193-.947c.114.387 11.542 39.017 15.776 62.302 3.797 20.89 6.207 44.712 5.167 46.581Z" fill="#3f4f21" fill-rule="evenodd" data-name="Path 62602"/><path d="m352.471 236.852-3.329-.048a76.292 76.292 0 0 1 .01-.465c.043-1.792.25-8.802 1.121-22.03a1140.946 1140.946 0 0 1 .52-7.51c1.418-19.537 11.472-56.884 13.115-62.894a275.334 275.334 0 0 1 .211-.768l3.21.888c-.118.423-11.728 42.512-13.214 63.015a1145.752 1145.752 0 0 0-.5 7.192c-1.002 15.135-1.136 22.164-1.143 22.6a5.673 5.673 0 0 0 0 .02Z" fill="#3f4f21" fill-rule="evenodd" data-name="Path 62603"/><path d="m360.43 237.813-3.25-.717c.01-.051 1.027-4.685 3.077-15.046a1875.089 1875.089 0 0 0 .99-5.04c2.582-13.25 13.273-23.252 15.523-25.235a20.805 20.805 0 0 1 .4-.344l2.133 2.556c-.089.075-6.554 5.551-11.044 13.696a34.469 34.469 0 0 0-3.744 9.964c-2.722 13.96-4.071 20.106-4.085 20.166Z" fill="#3f4f21" fill-rule="evenodd" data-name="Path 62604"/><path d="M326.169 170.58a5.323 5.323 0 0 0-.15-.156c-1.334-1.332-11.367-10.487-24.075 1.86a26.53 26.53 0 0 0-7.003 13.469c-2.67 11.938.19 26.422 4.872 34.507a18.047 18.047 0 0 0 3.354 4.346s1.523-10.952 11.454-12.202a14.562 14.562 0 0 1 .867-.082 47.158 47.158 0 0 0 7.65-1.13c8.59-2.01 17.323-6.73 23.152-15.934a31.615 31.615 0 0 0 .472-.768c6.966-11.726 3.514-23.452-5.113-26.398a17.018 17.018 0 0 0-2.172-.587c-7.475-1.492-12.958 2.793-13.292 3.061a1.736 1.736 0 0 0-.016.013Z" fill="#a6d497" fill-rule="evenodd" data-name="Path 62605"/><path d="M323.64 174.75a15.783 15.783 0 0 0-.514.358c-2.857 2.06-16.815 13.008-20.907 32.977a54.407 54.407 0 0 0-.19.976 5.96 5.96 0 0 1-.008-.087c-.14-1.654-1.83-26.347 21.619-34.224Z" fill="#606d29" fill-rule="evenodd" data-name="Path 62606"/><path d="M361.736 196.525a21.46 21.46 0 0 0 .007.203 12.361 12.361 0 0 0 .86 4.233c4.022 9.849 20.746 7.343 24.498 11.36 4.215 4.512 6.401 7.166 6.401 7.166a5.92 5.92 0 0 0 .231-.242c1.506-1.646 9.693-11.727 3.649-30.521-6.635-20.633-20.828-11.606-20.982-5.445 0 0-15.086-1.336-14.664 13.246Z" fill="#606d29" fill-rule="evenodd" data-name="Path 62607"/><path d="M393.401 209.06a23.317 23.317 0 0 0-2.753-9.074c-3.75-7.223-9.948-12.536-9.948-12.536a17.021 17.021 0 0 1 3.757 1.38c10.654 5.465 8.944 20.23 8.944 20.23Z" fill="#3f4f21" fill-rule="evenodd" data-name="Path 62608"/><path d="m358.806 150.39 6.066-1.517s1.983 8.912 11.812 7.293a17.321 17.321 0 0 0 .948-.184c10.645-2.368 15.763-14.37 14.824-22.154a14.165 14.165 0 0 0-.002-.014 26.687 26.687 0 0 0-.527-2.82c-1.85-7.887-6.664-19.106 1.576-25.248 0 0-26.514 2.37-36.875 17.5a23.895 23.895 0 0 0-1.14 1.837 46.25 46.25 0 0 0-2.043 4.1c-5.992 13.754-.628 21.965 4.735 21.322a5.06 5.06 0 0 0 .626-.115Z" fill="#606d29" fill-rule="evenodd" data-name="Path 62609"/><path d="M380.7 116.741s-12.606 10.806-15.924 24.076a2.66 2.66 0 0 1-.038-.12c-.39-1.294-3.254-12.962 15.962-23.956Z" fill="#3f4f21" fill-rule="evenodd" data-name="Path 62610"/><path d="M312.192 154.322s.169 9.148-12.817 9.053c-12.24-.09-16.816-12.626-22.142-15.225a4.786 4.786 0 0 0-.986-.36 32.923 32.923 0 0 0-2.123-.434c-4.506-.768-7.565-.31-7.728-.285a1.173 1.173 0 0 0-.007.001s6.33-14.502 27.525-12.322c20.378 2.095 27.95 12.688 19.386 18.853a14.19 14.19 0 0 1-1.108.719Z" fill="#606d29" fill-rule="evenodd" data-name="Path 62611"/><path d="M283.45 144.228s13.934.948 24.645 7.773a4.039 4.039 0 0 0-.13-.28c-.857-1.711-6.24-10.58-24.514-7.493Z" fill="#3f4f21" fill-rule="evenodd" data-name="Path 62612"/><path d="M360.416 143.58a5.528 5.528 0 0 0-.115-.037c-1.408-.442-15.273-4.427-15.999 10.09a25.466 25.466 0 0 0-.03.941c-.17 13.15 10.66 13.36 24.53 14.821a194.27 194.27 0 0 1 3.73.425c15.94 1.99 21.627 14.39 21.627 14.39a13.842 13.842 0 0 0 .107-.245c.81-1.893 5.892-14.473 3.642-27.052a31.43 31.43 0 0 0-1.284-4.912 24.253 24.253 0 0 0-5.548-8.554c-9.739-10.084-27.437-15.025-30.492-.762a18.34 18.34 0 0 0-.168.896Z" fill="#93af45" fill-rule="evenodd" data-name="Path 62613"/><path d="M365.724 147.072s18.293 3.082 25.023 21.019c0 0-.284-20.83-25.023-21.019Z" fill="#606d29" fill-rule="evenodd" data-name="Path 62614"/><path d="m333.804 138.921 2.726-6.161a3.98 3.98 0 0 0 .222-.066c1.296-.415 7.835-2.964 8.688-12.351a10.409 10.409 0 0 0 .042-.942c0-10.282-14.779-23.013-34.733-22.186-19.243.798-30.355 9.727-31.708 10.875a7.225 7.225 0 0 0-.14.12s7.962.759 11.185 11.943a123.9 123.9 0 0 0 1.685 5.445c3.354 9.905 8.843 20.156 21.02 20.716 9.83.451 14.749-.282 17.747-2.737a12.013 12.013 0 0 0 3.266-4.656Z" fill="#93af45" fill-rule="evenodd" data-name="Path 62615"/><path d="M294.825 109.537s24.265 2.843 36.398 19.146a9.901 9.901 0 0 0-.184-.48c-1.258-3.093-9.29-20.073-33.639-18.857a53.59 53.59 0 0 0-2.575.191Z" fill="#606d29" fill-rule="evenodd" data-name="Path 62616"/><path d="m338.521 252.188 11.944-8.152a50.368 50.368 0 0 0-3.104-.549c-10.777-1.564-21.553.34-30.215 2.944.307 1.713.635 3.477.976 5.252 10.46-2.314 18.827.02 20.201.442a8.08 8.08 0 0 1 .198.063Z" fill="#8ac680" fill-rule="evenodd" data-name="Path 62617"/><path d="M362.986 235.472a44.07 44.07 0 0 0-9.49 5.341 4.913 4.913 0 0 0-.122-.054c-1.28-.553-12.505-5.022-30.585-.33a77.593 77.593 0 0 0-6.352 1.948c-1.145-6.769-1.84-12.003-1.612-12.558a.762.762 0 0 1 .33-.312c2.286-1.367 15.394-2.937 26.795-3.37a158.228 158.228 0 0 1 4.533-.11 156.597 156.597 0 0 1 1.423-.007c19.575 0 28.458 3.738 29.476 4.664a7.25 7.25 0 0 0 .035.031c.474.425.457.298.214.804a69.493 69.493 0 0 0-5.148.962c-3.06.694-6.293 1.658-9.497 2.991Z" fill="#8ac680" fill-rule="evenodd" data-name="Path 62618"/><path d="M373.474 251.916a543.77 543.77 0 0 0 1.01-4.777c.78-3.77 1.407-7.036 1.743-9.135a41.938 41.938 0 0 0 .173-1.177c-2.965.546-6.231 1.35-9.498 2.54a42.197 42.197 0 0 0-8.097 3.91 26.368 26.368 0 0 0 .271.192c1.133.793 5.739 3.937 12.301 7.374a125.242 125.242 0 0 0 2.097 1.073Z" fill="#8ac680" fill-rule="evenodd" data-name="Path 62619"/><path d="M335.678 260.15a426.468 426.468 0 0 0-7.153 5.563 484.806 484.806 0 0 0-6.105 4.931 56.954 56.954 0 0 0 .592 1.92c.52 1.58 1.007 2.744 1.437 3.336a2.16 2.16 0 0 0 .14.173c3.161 3.524 14.073 4.033 20.916 4.32a2305.883 2305.883 0 0 1 .979.04 33.911 33.911 0 0 0 1.062.028c5.965.064 15.053-1.22 18.345-2.736a3.174 3.174 0 0 0 1.066-.703 3.547 3.547 0 0 0 .435-.87c1.107-2.82 3.228-11.414 5.144-19.975a180.866 180.866 0 0 1-2.023-1.078 229.133 229.133 0 0 1-15.333-9.123 64.567 64.567 0 0 1-.355-.233 404.542 404.542 0 0 0-.352.261c-1.356 1.007-6.535 4.861-14.032 10.534a2590.773 2590.773 0 0 0-4.763 3.612Z" fill="#8ac680" fill-rule="evenodd" data-name="Path 62620"/><path d="m350.465 244.036-11.944 8.152s-8.943-3.04-20.399-.505a450.226 450.226 0 0 0 .198 1.018 402.444 402.444 0 0 0 .616 3.103c4.015-.832 8.988-1.108 13.962.567a22.29 22.29 0 0 1 .505.177l-12.04 10.139a135.58 135.58 0 0 0 .535 2.073 87.442 87.442 0 0 0 .523 1.884 490.468 490.468 0 0 1 2.888-2.353c1.53-1.237 3.18-2.556 4.918-3.924a416.935 416.935 0 0 1 5.451-4.217 2582.903 2582.903 0 0 1 6.026-4.568c7.555-5.709 12.483-9.366 13.064-9.797a165.267 165.267 0 0 1 .057-.042 61.529 61.529 0 0 0 .32.21c1.465.96 7.8 5.052 15.368 9.146a180.877 180.877 0 0 0 2.023 1.078 594.222 594.222 0 0 0 .939-4.261c-8.38-4.19-14.145-8.265-14.635-8.614a9.768 9.768 0 0 1-.034-.025 42.198 42.198 0 0 1 8.097-3.91c3.266-1.19 6.533-1.994 9.498-2.54a50.34 50.34 0 0 1 .067-.5c.358-2.549.745-3.8 1.009-4.453a6.217 6.217 0 0 1 .155-.355 68.782 68.782 0 0 0-6.186 1.207c-5.905 1.441-12.356 3.902-17.948 8.087 0 0-12.14-5.686-32.373.068a78.811 78.811 0 0 0-4.688 1.496 400.112 400.112 0 0 0 .524 3.016 478.393 478.393 0 0 0 .185 1.038c8.662-2.604 19.438-4.508 30.214-2.944a50.368 50.368 0 0 1 3.105.55Z" fill="#69a25f" fill-rule="evenodd" data-name="Path 62621"/><path d="m321.364 266.687 12.039-10.139c-4.373-1.59-8.772-1.636-12.543-1.084a33.06 33.06 0 0 0-1.924.34 318.473 318.473 0 0 0 1.197 5.644 216.09 216.09 0 0 0 1.025 4.407 162.604 162.604 0 0 0 .206.832Z" fill="#8ac680" fill-rule="evenodd" data-name="Path 62622"/></g></svg>