<svg xmlns="http://www.w3.org/2000/svg" width="133.189" height="183.287" viewBox="0 0 133.189 183.287">
  <g id="Group_23982" data-name="Group 23982" transform="translate(-266.389 -97.177)">
    <path id="Path_62601" data-name="Path 62601" d="M405.016,186.6l-3.32-.246c.017-.24,1.7-24.3-4.407-48.1-6.068-23.624-21.614-40.063-21.77-40.226l2.4-2.3a102.551,102.551,0,0,1,22.59,41.7C406.764,161.771,405.034,186.357,405.016,186.6Z" transform="translate(-69.953 52.072)" fill="#3f4f21"/>
    <path id="Path_62602" data-name="Path 62602" d="M416.533,183.386l-2.91-1.619a1.255,1.255,0,0,0-.143.378c.27-1.745-1.16-21.473-5.39-44.746-4.2-23.105-15.579-61.563-15.693-61.949l3.192-.947c.114.387,11.543,39.017,15.776,62.3C415.163,157.695,417.573,181.517,416.533,183.386Z" transform="translate(-69.595 51.622)" fill="#3f4f21"/>
    <path id="Path_62603" data-name="Path 62603" d="M421.519,184.877l-3.329-.048c0-.091.149-9.288,1.651-30,1.511-20.835,12.845-61.924,13.326-63.663l3.209.888c-.117.423-11.727,42.511-13.214,63.015C421.668,175.665,421.52,184.787,421.519,184.877Z" transform="translate(-69.048 51.976)" fill="#3f4f21"/>
    <path id="Path_62604" data-name="Path 62604" d="M429.311,184.834l-3.251-.717c.013-.059,1.355-6.174,4.068-20.086,2.829-14.515,15.39-25.133,15.923-25.579l2.133,2.556c-.121.1-12.189,10.326-14.788,23.66C430.674,178.628,429.325,184.774,429.311,184.834Z" transform="translate(-68.881 52.979)" fill="#3f4f21"/>
    <path id="Path_62605" data-name="Path 62605" d="M396.364,118.13s-10.568-11.564-24.225,1.705-7.592,44.36,1.223,52.321c0,0,1.611-11.583,12.321-12.284s23.215-5.086,30.8-17.064,4.174-24.156-4.642-27.167A16.946,16.946,0,0,0,396.364,118.13Z" transform="translate(-70.195 52.449)" fill="#a6d497"/>
    <path id="Path_62606" data-name="Path 62606" d="M393.669,122.117a55.6,55.6,0,0,0-21.611,34.311S369.4,130.268,393.669,122.117Z" transform="translate(-70.029 52.633)" fill="#606d29"/>
    <path id="Path_62607" data-name="Path 62607" d="M445.186,130.623s-15.225-1.349-14.657,13.449,21.143,11.081,25.358,15.593,6.4,7.166,6.4,7.166,10.515-10.131,3.88-30.763S445.34,124.462,445.186,130.623Z" transform="translate(-68.786 52.656)" fill="#606d29"/>
    <path id="Path_62608" data-name="Path 62608" d="M449.092,134.554s11.943,10.237,12.7,21.61C461.793,156.164,463.878,138.156,449.092,134.554Z" transform="translate(-68.392 52.896)" fill="#3f4f21"/>
    <path id="Path_62609" data-name="Path 62609" d="M462.515,54.547S433.884,57.106,424.5,73.884s-2.748,26.823,3.318,25.307l6.066-1.517s2.11,9.479,12.76,7.109,15.77-14.384,14.822-22.168S453.232,61.467,462.515,54.547Z" transform="translate(-69.013 51.199)" fill="#606d29"/>
    <path id="Path_62610" data-name="Path 62610" d="M449.432,65.314S436.826,76.12,433.508,89.389C433.508,89.389,429.053,76.972,449.432,65.314Z" transform="translate(-68.731 51.427)" fill="#3f4f21"/>
    <path id="Path_62611" data-name="Path 62611" d="M382.96,102.525s.168,9.148-12.817,9.053-17.346-14.2-23.128-15.585a27.52,27.52,0,0,0-9.858-.718s6.33-14.5,27.525-12.322S393.217,96.5,382.96,102.525Z" transform="translate(-70.768 51.796)" fill="#606d29"/>
    <path id="Path_62612" data-name="Path 62612" d="M353.864,92.243s13.934.948,24.644,7.773C378.508,100.016,374.054,88.832,353.864,92.243Z" transform="translate(-70.413 51.985)" fill="#3f4f21"/>
    <path id="Path_62613" data-name="Path 62613" d="M429.566,91.8s-15.349-5.242-16.114,10.052,12.289,14.2,28.23,16.187,21.628,14.389,21.628,14.389,7.771-17.137,2.464-32.208S432.694,72.573,429.566,91.8Z" transform="translate(-69.149 51.782)" fill="#93af45"/>
    <path id="Path_62614" data-name="Path 62614" d="M434.427,95.015S452.72,98.1,459.45,116.034C459.45,116.034,459.166,95.2,434.427,95.015Z" transform="translate(-68.703 52.057)" fill="#606d29"/>
    <path id="Path_62615" data-name="Path 62615" d="M349.409,57.19s7.961.758,11.184,11.942,8.256,25.5,22.706,26.161,18.286-1.233,21.013-7.393l2.726-6.161s7.962-1.99,8.91-12.417-14.123-23.98-34.691-23.128S349.409,57.19,349.409,57.19Z" transform="translate(-70.508 51.021)" fill="#93af45"/>
    <path id="Path_62616" data-name="Path 62616" d="M365,58.265s24.264,2.843,36.4,19.146C401.4,77.411,393.911,55.421,365,58.265Z" transform="translate(-70.177 51.272)" fill="#606d29"/>
    <path id="Path_62617" data-name="Path 62617" d="M408.233,198.139l11.943-8.151c-11.79-2.472-23.824-.46-33.319,2.395.307,1.713.635,3.476.976,5.252A41.383,41.383,0,0,1,408.233,198.139Z" transform="translate(-69.712 54.049)" fill="#8ac680"/>
    <path id="Path_62618" data-name="Path 62618" d="M423.259,187.115c7.637-5.715,16.875-8.215,24.135-9.294.248-.518.26-.373-.249-.835-1.043-.948-10.331-4.844-30.9-4.657-12.985.118-31,2.18-31.658,3.792-.229.556.467,5.789,1.611,12.558C409.229,180.544,423.259,187.115,423.259,187.115Z" transform="translate(-69.762 53.698)" fill="#8ac680"/>
    <path id="Path_62619" data-name="Path 62619" d="M442.321,197.994c1.423-6.582,2.6-12.548,2.926-15.089a50.415,50.415,0,0,0-17.595,6.45A117.28,117.28,0,0,0,442.321,197.994Z" transform="translate(-68.847 53.922)" fill="#8ac680"/>
    <path id="Path_62620" data-name="Path 62620" d="M405.281,206.042c-5.024,3.819-9.647,7.529-13.258,10.494.8,2.766,1.551,4.743,2.168,5.429,3.317,3.7,15.165,4.076,21.9,4.361s18.862-1.517,20.473-3.412c.883-1.04,3.367-10.964,5.579-20.845-9.546-5.008-17.711-10.434-17.711-10.434S416.75,197.322,405.281,206.042Z" transform="translate(-69.603 54.108)" fill="#8ac680"/>
    <path id="Path_62621" data-name="Path 62621" d="M428.533,189.465a50.416,50.416,0,0,1,17.595-6.45h0a17.576,17.576,0,0,1,1.232-5.308c-7.26,1.079-16.5,3.579-24.135,9.294,0,0-14.03-6.572-37.06,1.564.221,1.3.459,2.661.709,4.054,9.494-2.854,21.528-4.867,33.319-2.395l-11.943,8.151a41.383,41.383,0,0,0-20.4-.5c.265,1.375.536,2.752.814,4.121a26.562,26.562,0,0,1,14.467.744L391.09,212.875c.358,1.436.713,2.774,1.057,3.957,3.61-2.965,8.233-6.675,13.258-10.494,11.469-8.72,19.147-14.407,19.147-14.407s8.165,5.426,17.711,10.434c.321-1.431.635-2.859.938-4.261A117.282,117.282,0,0,1,428.533,189.465Z" transform="translate(-69.727 53.812)" fill="#69a25f"/>
    <path id="Path_62622" data-name="Path 62622" d="M388.611,201.5c.788,3.881,1.619,7.648,2.427,10.883l12.039-10.139A26.561,26.561,0,0,0,388.611,201.5Z" transform="translate(-69.675 54.303)" fill="#8ac680"/>
  </g>
</svg>
