<svg width="223" height="78" viewBox="0 0 223 78" fill="none" xmlns="http://www.w3.org/2000/svg">
<path d="M10.2969 60.7877C10.5275 57.0075 10.4515 53.2149 10.0696 49.4471C9.8713 47.5126 9.64884 46.0618 9.42155 44.9302C8.6913 41.2451 8.29958 38.6433 8.18835 38.0581C7.61285 35.0646 6.37966 23.1582 13.7015 15.9041C17.8266 11.7982 22.9287 10.8891 25.2162 10.4828C33.2682 9.04651 39.6518 12.0352 41.8329 13.191C41.9813 15.398 42.004 17.6117 41.9006 19.8213C41.7652 23.1582 41.7169 25.5762 40.8899 27.9942C39.5476 31.7207 37.1724 34.9882 34.042 37.4149C26.8411 42.7153 18.1362 41.2112 16.7482 40.9453C16.9263 39.0549 17.2858 37.186 17.8218 35.3644C18.6848 32.4359 20.0035 29.6615 21.7294 27.1431C23.3327 24.8428 25.2559 22.7829 27.4408 21.0255C31.7932 17.3887 35.7056 15.8605 35.6282 15.7058C35.5509 15.551 29.8975 18.4237 28.7755 19.0717C27.8422 19.623 26.9475 20.2082 26.9475 20.2082C26.667 20.4016 26.3623 20.6144 26.048 20.8514C24.4031 22.0992 22.9055 23.5302 21.5843 25.1168C20.3709 26.4928 19.2817 27.9736 18.3296 29.5418C16.6964 32.2973 15.5251 35.3015 14.8621 38.4353C13.8949 43.0538 14.7509 44.4321 14.3785 48.5911C13.9339 52.9078 12.5401 57.0728 10.2969 60.7877Z" fill="url(#paint0_linear_154_2177)"/>
<path d="M0.242639 43.3149C-0.182435 44.9563 -0.0462478 46.6927 0.629525 48.2477C1.11155 49.2537 1.80426 50.1443 2.66068 50.8592C4.49355 52.4744 5.64937 52.1891 7.01314 53.5674C7.85072 54.4402 8.42558 55.5313 8.67192 56.7157C9.02743 54.8819 9.06505 53.0007 8.78315 51.1542C8.43011 48.8667 7.99487 46.0279 5.65904 44.3837C3.66174 42.986 1.32592 43.1456 0.242639 43.3149Z" fill="url(#paint1_linear_154_2177)"/>
<path d="M18.3876 29.6337C19.3505 28.069 20.4441 26.5887 21.6568 25.2087C23.2883 23.3614 25.1195 21.7005 27.1167 20.2565C28.6691 19.1609 30.2983 18.1783 31.9915 17.3162C35.132 15.6735 38.3987 14.2844 41.7604 13.162C36.6926 10.5509 30.9168 9.64676 25.2936 10.5844C22.9964 10.9954 17.8702 11.9046 13.7208 16.0056C6.36032 23.2742 7.60319 35.1613 8.17868 38.15C8.29475 38.7448 8.68647 41.3418 9.41672 45.0221C9.64885 46.1682 9.90032 47.5949 10.0744 49.5438C10.4562 53.31 10.5322 57.101 10.3017 60.8796C13.2034 55.8791 14.1271 51.662 14.4027 48.6926C14.7944 44.5288 13.9191 43.1505 14.8863 38.5369C15.5597 35.398 16.7425 32.3904 18.3876 29.6337Z" fill="url(#paint2_linear_154_2177)"/>
<path d="M1.95943 44.3788C3.7987 45.5936 5.29694 47.2583 6.3119 49.2149C7.12789 50.9211 7.77575 52.7028 8.24633 54.5346C8.43494 55.26 8.58002 55.9516 8.68158 56.5271C9.00573 54.7528 9.03188 52.937 8.75895 51.1542C8.40592 48.8667 7.97067 46.0279 5.63485 44.3837C3.66173 42.986 1.32591 43.1456 0.242625 43.3149C0.242625 43.3487 0.242625 43.3826 0.218445 43.4213C0.823956 43.6924 1.40623 44.0126 1.95943 44.3788Z" fill="url(#paint3_linear_154_2177)"/>
<path d="M58.9175 18.2502V52.1246C58.9175 52.4235 59.0669 52.6228 59.3658 52.6228H63.3013C63.6001 52.6228 63.7994 52.4235 63.7994 52.1246V40.3682H70.923C78.5946 40.3682 83.078 36.1339 83.078 29.0601C83.078 21.9864 78.5946 17.752 70.923 17.752H59.3658C59.0669 17.752 58.9175 17.9513 58.9175 18.2502ZM63.7994 22.2852H70.0263C75.3566 22.2852 77.9968 24.3277 77.9968 29.0103C77.9968 33.7428 75.3566 35.8848 70.0263 35.8848H63.7994V22.2852ZM87.5882 31.2022V52.1246C87.5882 52.4235 87.7875 52.6228 88.0365 52.6228H91.7229C92.0218 52.6228 92.1712 52.4235 92.1712 52.1246V42.3608C92.1712 36.8811 95.6583 34.5896 100.391 34.7391C100.739 34.7391 100.889 34.5398 100.889 34.1911V30.6044C100.889 30.3055 100.739 30.1063 100.441 30.1063C96.3059 30.3553 93.4664 32.2483 91.7727 35.0878L91.0753 31.1026C91.0255 30.8535 90.8262 30.704 90.5771 30.704H88.0365C87.7875 30.704 87.5882 30.9033 87.5882 31.2022ZM114.646 30.1063C107.971 30.1063 103.139 34.9882 103.139 41.6634C103.139 48.2889 107.971 53.2206 114.646 53.2206C121.372 53.2206 126.154 48.2889 126.154 41.6634C126.154 34.9882 121.322 30.1063 114.646 30.1063ZM114.646 34.0915C118.682 34.0915 121.471 36.9808 121.471 41.6136C121.471 46.2464 118.682 49.2354 114.646 49.2354C110.661 49.2354 107.872 46.2464 107.872 41.6136C107.872 36.9808 110.661 34.0915 114.646 34.0915ZM145.641 36.1837L147.783 33.7428C147.932 33.5435 147.932 33.2446 147.733 33.0952C145.541 31.3018 142.452 30.1063 138.766 30.1063C133.436 30.1063 130.148 32.6468 130.148 36.5324C130.148 40.0195 132.44 42.1118 137.62 43.2575C142.751 44.4033 143.698 45.0011 143.698 46.5951C143.698 48.1394 141.755 49.335 139.214 49.335C136.325 49.335 133.735 48.0896 131.991 46.7944C131.692 46.5951 131.493 46.645 131.294 46.894L129.5 49.5841C129.351 49.7833 129.351 49.9826 129.55 50.1818C131.742 51.9752 135.329 53.2206 139.115 53.2206C144.644 53.2206 148.43 50.3811 148.43 46.3461C148.43 42.7594 146.238 41.0158 140.211 39.7704C135.927 38.8738 134.88 38.0767 134.88 36.3332C134.88 34.8387 136.325 33.9919 138.866 33.9919C141.107 33.9919 143.399 34.9383 144.943 36.2335C145.192 36.383 145.491 36.383 145.641 36.1837ZM165.03 30.1063C161.443 30.1063 158.653 31.8498 157.059 34.6893L156.312 31.1026C156.262 30.8535 156.063 30.704 155.814 30.704H153.273C152.974 30.704 152.775 30.9033 152.775 31.2022V61.5896C152.775 61.8885 152.974 62.0877 153.273 62.0877H156.91C157.209 62.0877 157.408 61.8885 157.408 61.5896V49.2852C159.052 51.7261 161.692 53.2206 165.03 53.2206C171.257 53.2206 175.79 48.3885 175.79 41.7132C175.79 34.9882 171.257 30.1063 165.03 30.1063ZM164.233 34.1413C168.567 34.1413 171.107 37.3793 171.107 41.7132C171.107 46.0472 168.567 49.1357 164.233 49.1357C160.297 49.1357 157.258 46.097 157.258 41.7132C157.258 37.2299 160.297 34.1413 164.233 34.1413ZM192.759 30.1063C189.172 30.1063 186.383 31.8498 184.788 34.6893L184.041 31.1026C183.991 30.8535 183.792 30.704 183.543 30.704H181.003C180.704 30.704 180.504 30.9033 180.504 31.2022V61.5896C180.504 61.8885 180.704 62.0877 181.003 62.0877H184.639C184.938 62.0877 185.137 61.8885 185.137 61.5896V49.2852C186.781 51.7261 189.421 53.2206 192.759 53.2206C198.986 53.2206 203.519 48.3885 203.519 41.7132C203.519 34.9882 198.986 30.1063 192.759 30.1063ZM191.962 34.1413C196.296 34.1413 198.836 37.3793 198.836 41.7132C198.836 46.0472 196.296 49.1357 191.962 49.1357C188.026 49.1357 184.988 46.097 184.988 41.7132C184.988 37.2299 188.026 34.1413 191.962 34.1413ZM208.283 31.2022V52.1246C208.283 52.4235 208.483 52.6228 208.732 52.6228H212.418C212.717 52.6228 212.866 52.4235 212.866 52.1246V42.3608C212.866 36.8811 216.354 34.5896 221.086 34.7391C221.435 34.7391 221.584 34.5398 221.584 34.1911V30.6044C221.584 30.3055 221.435 30.1063 221.136 30.1063C217.001 30.3553 214.162 32.2483 212.468 35.0878L211.77 31.1026C211.721 30.8535 211.521 30.704 211.272 30.704H208.732C208.483 30.704 208.283 30.9033 208.283 31.2022Z" fill="white"/>
<defs>
<linearGradient id="paint0_linear_154_2177" x1="33.5971" y1="41.3321" x2="7.13408" y2="26.055" gradientUnits="userSpaceOnUse">
<stop stop-color="#007261"/>
<stop offset="0.99" stop-color="#358873"/>
</linearGradient>
<linearGradient id="paint1_linear_154_2177" x1="8.94757" y1="49.9597" x2="-0.0233448" y2="49.9597" gradientUnits="userSpaceOnUse">
<stop stop-color="#A6D49F"/>
<stop offset="0.99" stop-color="#8AC680"/>
</linearGradient>
<linearGradient id="paint2_linear_154_2177" x1="41.7604" y1="35.5385" x2="7.72409" y2="35.5385" gradientUnits="userSpaceOnUse">
<stop stop-color="#007261"/>
<stop offset="0.99" stop-color="#358873"/>
</linearGradient>
<linearGradient id="paint3_linear_154_2177" x1="10.0599" y1="55.7291" x2="2.22058" y2="42.1591" gradientUnits="userSpaceOnUse">
<stop stop-color="#A6D49F"/>
<stop offset="0.99" stop-color="#8AC680"/>
</linearGradient>
</defs>
</svg>
