<svg width="55" height="25" viewBox="0 0 55 25" fill="none" xmlns="http://www.w3.org/2000/svg">
<path d="M7 10L0.5 9V25H54.5V18L46.5 13.5L42.5 15.5L35 19L29 7L22 3L16.5 1L14.5 2L11 8L7 10Z" fill="url(#paint0_linear_8_41)"/>
<path d="M45.947 13.3461C49.024 13.3461 52.102 15.6951 53.977 17.4581Z" fill="black"/>
<path d="M52.717 16.3541C51.9302 15.7058 51.0891 15.1264 50.203 14.6221C48.9151 13.8437 47.4507 13.4047 45.947 13.3461M45.947 13.3461C45.7932 13.346 45.6394 13.3513 45.486 13.3621C41.018 13.6821 40.865 18.6371 36.1 18.6371C35.6721 18.6242 35.2523 18.5169 34.8706 18.3229C34.4889 18.129 34.1548 17.8532 33.892 17.5151C31.027 14.2801 30.336 5.15013 26.435 5.15013C26.0845 5.15094 25.7343 5.12755 25.387 5.08013C21.945 4.60313 21.267 1.79613 18.039 1.13813C17.5612 1.04342 17.0751 0.997185 16.588 1.00013C15.9839 1.01086 15.3903 1.15983 14.8528 1.43562C14.3152 1.71142 13.848 2.1067 13.487 2.59113C12.157 4.15113 11.278 6.52613 9.98 8.14113C9.6177 8.66991 9.13509 9.10516 8.57185 9.41112C8.0086 9.71708 7.38078 9.88502 6.74 9.90113C4.77448 9.88931 2.82822 9.51294 1 8.79113M45.947 13.3461C49.024 13.3461 52.102 15.6951 53.977 17.4581" stroke="#FF8080" stroke-width="2" stroke-linecap="round" stroke-linejoin="round"/>
<defs>
<linearGradient id="paint0_linear_8_41" x1="27.5" y1="1" x2="27.5" y2="36" gradientUnits="userSpaceOnUse">
<stop stop-color="#C68080" stop-opacity="0.322"/>
<stop offset="1" stop-color="white" stop-opacity="0"/>
</linearGradient>
</defs>
</svg>
