<svg width="61" height="26" viewBox="0 0 61 26" fill="none" xmlns="http://www.w3.org/2000/svg">
<path d="M59.264 7.25901L49.022 9.98601L41.058 1.43701L36.267 2.32101L32.958 5.04801L29.347 5.78501L25.368 11.975L22.578 18.394H18.842L15.776 18.01L14.339 14.849L12.039 13.507H9.16397C9.16397 13.507 6.00597 15.615 5.62097 15.807C5.23597 15.999 1.69296 17.339 1.69296 17.339L0.63797 19.352V25.808H59.263L59.264 7.25901Z" fill="url(#paint0_linear_7_33)"/>
<path fill-rule="evenodd" clip-rule="evenodd" d="M34.4267 2.29854C35.6863 1.23679 37.1535 0 39.981 0C41.567 0 42.7393 0.736235 43.6398 1.71273C44.4913 2.63624 45.1558 3.83754 45.7483 4.90868L45.78 4.96589C46.4105 6.1055 46.9685 7.10271 47.6405 7.83148C48.2759 8.52055 48.9468 8.89654 49.8169 8.89998C53.1779 8.81142 56.437 7.72694 59.1811 5.78388L60.3369 7.41612C57.2654 9.59097 53.6167 10.8035 49.8545 10.8997L49.8417 10.9H49.829C48.243 10.9 47.0706 10.1638 46.1702 9.18727C45.3186 8.26376 44.6541 7.06246 44.0616 5.99132L44.03 5.93411C43.3995 4.7945 42.8414 3.79729 42.1694 3.06852C41.5311 2.37627 40.857 2 39.981 2C37.8949 2 36.9006 2.82899 35.7016 3.83961L35.6871 3.85181C34.4277 4.9134 32.9607 6.15 30.134 6.15C29.5055 6.15 28.8764 6.57708 28.1781 7.7643C27.4967 8.92281 26.9334 10.495 26.3225 12.2001L26.3115 12.2308C25.7169 13.8902 25.0741 15.6802 24.2449 17.0481C23.4233 18.4034 22.2385 19.637 20.469 19.637C17.5706 19.637 16.0765 18.0309 14.8536 16.7164C14.84 16.7018 14.8265 16.6872 14.813 16.6727C13.5817 15.3495 12.6149 14.346 10.622 14.346C8.52465 14.346 6.29483 15.6542 4.48341 17.1298C3.60049 17.849 2.86179 18.5708 2.34365 19.1134C2.08518 19.3841 1.88312 19.6086 1.74705 19.7638C1.67905 19.8413 1.62763 19.9014 1.594 19.9412L1.55708 19.9852L1.54892 19.995L1.54755 19.9967C1.54766 19.9966 1.5478 19.9964 0.773966 19.363C0.00013423 18.7296 0.000304827 18.7294 0.000494191 18.7292L0.00225497 18.727L0.00618351 18.7223L0.0194094 18.7063C0.0305936 18.6928 0.0464917 18.6738 0.066953 18.6496C0.107869 18.6013 0.167072 18.5321 0.243354 18.4451C0.395848 18.2712 0.617013 18.0257 0.897183 17.7322C1.45633 17.1467 2.25656 16.3642 3.22027 15.5792C5.1021 14.0463 7.79628 12.346 10.622 12.346C13.5196 12.346 15.0135 13.9519 16.2362 15.2662L16.2772 15.3103C17.5084 16.6334 18.4755 17.637 20.469 17.637C21.1615 17.637 21.8232 17.1848 22.5346 16.0112C23.2384 14.8503 23.8151 13.2686 24.4287 11.5562C24.4461 11.5075 24.4636 11.4587 24.4812 11.4097C25.0589 9.79656 25.6759 8.07362 26.4542 6.75039C27.2432 5.40879 28.392 4.15 30.134 4.15C32.2194 4.15 33.2135 3.32109 34.4126 2.31039L34.4267 2.29854Z" fill="#8AC680"/>
<defs>
<linearGradient id="paint0_linear_7_33" x1="29.951" y1="1.43701" x2="29.951" y2="40.808" gradientUnits="userSpaceOnUse">
<stop stop-color="#8AC680" stop-opacity="0.322"/>
<stop offset="1" stop-color="white" stop-opacity="0"/>
</linearGradient>
</defs>
</svg>
