<?xml version="1.0" encoding="utf-8"?>
<!-- Generator: Adobe Illustrator 24.0.1, SVG Export Plug-In . SVG Version: 6.00 Build 0)  -->
<svg version="1.1" id="Layer_1" xmlns="http://www.w3.org/2000/svg" xmlns:xlink="http://www.w3.org/1999/xlink" x="0px" y="0px"
	 viewBox="0 0 25.5 25.5" style="enable-background:new 0 0 25.5 25.5;" xml:space="preserve">
<style type="text/css">
	.st0{fill:#2F4858;}
	.st1{fill:#FFFFFF;}
	.st2{fill:none;stroke:#2F4858;stroke-width:2;}
</style>
<path id="Path_23047" class="st0" d="M12.8,1.3c1.3,0,2.5,0.9,2.8,2.2c0.2,0.7,0.8,1.1,1.5,0.9c0.1,0,0.2-0.1,0.3-0.1
	c1.3-0.8,3.1-0.4,3.9,0.9c0,0.1,0.1,0.1,0.1,0.2c0.5,0.9,0.5,2-0.1,2.9c-0.4,0.6-0.2,1.3,0.4,1.7c0.1,0.1,0.2,0.1,0.3,0.1
	c1.5,0.4,2.5,1.9,2.1,3.4c-0.3,1-1.1,1.9-2.1,2.1c-0.7,0.2-1.1,0.8-0.9,1.5c0,0.1,0.1,0.2,0.1,0.3c0.5,0.9,0.6,2,0.1,2.9
	c-0.5,0.9-1.5,1.5-2.5,1.5c-0.5,0-1-0.2-1.5-0.4c-0.6-0.4-1.3-0.2-1.7,0.4c-0.1,0.1-0.1,0.2-0.1,0.3c-0.4,1.5-1.9,2.5-3.4,2.1
	c-1-0.3-1.9-1.1-2.1-2.1c-0.2-0.7-0.8-1.1-1.5-0.9c-0.1,0-0.2,0.1-0.3,0.1c-1.3,0.8-3.1,0.4-3.9-0.9c0-0.1-0.1-0.1-0.1-0.2
	c-0.5-0.9-0.5-2,0.1-2.9c0.4-0.6,0.2-1.3-0.4-1.7c-0.1-0.1-0.2-0.1-0.3-0.1C2,15.2,1,13.6,1.4,12.1c0.3-1,1.1-1.9,2.1-2.1
	c0.7-0.2,1.1-0.8,0.9-1.5c0-0.1-0.1-0.2-0.1-0.3c-0.5-0.9-0.6-2-0.1-2.9c0.5-0.9,1.5-1.5,2.5-1.5c0.5,0,1,0.2,1.5,0.4
	c0.2,0.1,0.4,0.2,0.6,0.2C9.4,4.4,9.9,4,10,3.5C10.3,2.2,11.4,1.3,12.8,1.3z M16.7,6.1c-1.3,0-2.5-0.9-2.8-2.2
	c-0.2-0.7-0.8-1.1-1.5-0.9c-0.4,0.1-0.8,0.5-0.9,0.9C11.2,5.4,9.7,6.4,8.1,6C7.9,5.9,7.6,5.8,7.3,5.6C7.1,5.5,6.9,5.5,6.7,5.5
	c-0.5,0-0.9,0.3-1.1,0.7C5.4,6.5,5.4,7,5.6,7.3c0.8,1.3,0.4,3.1-1,3.9c-0.3,0.2-0.5,0.3-0.8,0.3c-0.7,0.2-1.1,0.8-0.9,1.5
	c0.1,0.4,0.5,0.8,0.9,0.9c1.5,0.4,2.5,1.9,2.1,3.5c-0.1,0.3-0.2,0.6-0.3,0.8c-0.2,0.4-0.3,0.8,0,1.2c0.2,0.4,0.6,0.6,1.1,0.7
	c0.2,0,0.4-0.1,0.6-0.2c1.3-0.8,3.1-0.4,3.9,1c0.2,0.3,0.3,0.5,0.3,0.8c0.2,0.7,0.8,1.1,1.5,0.9c0.4-0.1,0.8-0.5,0.9-0.9
	c0.4-1.5,1.9-2.5,3.5-2.1c0.3,0.1,0.6,0.2,0.8,0.3c0.2,0.1,0.4,0.2,0.6,0.2c0.5,0,0.9-0.3,1.1-0.7c0.2-0.4,0.2-0.8,0-1.2
	c-0.8-1.3-0.4-3.1,1-3.9c0.3-0.2,0.5-0.3,0.8-0.3c0.7-0.2,1.1-0.8,0.9-1.5c-0.1-0.4-0.5-0.8-0.9-0.9c-1.5-0.4-2.5-1.9-2.1-3.5
	c0.1-0.3,0.2-0.6,0.3-0.8c0.2-0.4,0.3-0.8,0-1.2c-0.2-0.4-0.6-0.6-1.1-0.7c-0.2,0-0.4,0.1-0.6,0.2C17.8,5.9,17.3,6.1,16.7,6.1
	L16.7,6.1z"/>
<g id="Ellipse_457">
	<circle class="st1" cx="12.8" cy="12.7" r="4.5"/>
	<circle class="st2" cx="12.8" cy="12.7" r="3.6"/>
</g>
</svg>
