<?xml version="1.0" encoding="utf-8"?>
<!-- Generator: Adobe Illustrator 24.0.1, SVG Export Plug-In . SVG Version: 6.00 Build 0)  -->
<svg version="1.1" id="Layer_1" xmlns="http://www.w3.org/2000/svg" xmlns:xlink="http://www.w3.org/1999/xlink" x="0px" y="0px"
	 viewBox="0 0 28 28" style="enable-background:new 0 0 28 28;" xml:space="preserve">
<style type="text/css">
	.st0{display:none;}
	.st1{display:inline;fill:#2F4858;}
	.st2{fill:#2F4858;}
</style>
<g class="st0">
	<path class="st1" d="M26.6,24c0,0.7,0,1.5,0,2.2c-0.2,0.3-0.4,0.4-0.8,0.4c-5.7,0-11.3,0-17,0c-2.2,0-4.5,0-6.7,0
		c-0.5,0-0.7-0.2-0.7-0.7c0-0.5,0-1.1,0-1.6c0-0.4,0.1-0.8,0.3-1.2C2.2,22.4,2.8,22,3.7,22c0-3.4,0-6.9,0-10.3c-0.5,0-1.1,0-1.6,0
		c-0.5,0-0.7-0.2-0.7-0.7c0-0.7,0-1.4,0-2.1c0-0.3,0.1-0.5,0.4-0.7C5,6.3,8.2,4.4,11.4,2.5c0.7-0.4,1.4-1,2.3-1.2c0.2,0,0.4,0,0.6,0
		c0.3,0.1,0.6,0.2,0.9,0.4c3.6,2.2,7.3,4.3,10.9,6.5c0.2,0.1,0.3,0.3,0.5,0.4c0,0.9,0,1.7,0,2.6c-0.2,0.3-0.4,0.4-0.8,0.4
		c-0.3,0-0.6,0-0.9,0c-0.2,0-0.4,0-0.6,0c0,3.5,0,6.9,0,10.3c0.9,0.2,1.3,0.3,1.7,0.8C26.3,23.1,26.5,23.5,26.6,24z M2.5,10.5
		c7.6,0,15.3,0,22.9,0c0-0.4,0-0.7,0-1.1c0-0.2-0.1-0.3-0.2-0.4c-3.5-2.1-7-4.2-10.5-6.3c-0.5-0.3-0.9-0.3-1.4,0
		c-1.5,0.9-3.1,1.8-4.6,2.8c-2,1.2-4,2.4-5.9,3.5c-0.1,0-0.2,0.1-0.2,0.2C2.5,9.6,2.5,10.1,2.5,10.5z M2.6,25.4c7.6,0,15.3,0,22.9,0
		c0-0.3,0-0.6,0-0.9c0-0.9-0.4-1.3-1.3-1.3c-6.7,0-13.5,0-20.2,0c-0.1,0-0.1,0-0.2,0c-0.6,0-1,0.4-1.1,1C2.5,24.5,2.6,25,2.6,25.4z
		 M11.7,22c0-3.4,0-6.9,0-10.3c-1.1,0-2.3,0-3.4,0c0,3.4,0,6.9,0,10.3C9.4,22,10.6,22,11.7,22z M16.3,22c1.1,0,2.3,0,3.4,0
		c0-3.4,0-6.9,0-10.3c-1.1,0-2.3,0-3.4,0C16.3,15.1,16.3,18.5,16.3,22z M7.1,22c0-3.4,0-6.9,0-10.3c-0.8,0-1.5,0-2.2,0
		c0,3.4,0,6.9,0,10.3C5.6,22,6.3,22,7.1,22z M12.9,11.7c0,3.4,0,6.9,0,10.3c0.8,0,1.5,0,2.2,0c0-3.4,0-6.9,0-10.3
		C14.4,11.7,13.6,11.7,12.9,11.7z M20.9,11.7c0,3.4,0,6.9,0,10.3c0.8,0,1.5,0,2.2,0c0-3.4,0-6.9,0-10.3
		C22.4,11.7,21.6,11.7,20.9,11.7z"/>
	<path class="st1" d="M14,4.8c1.3,0,2.3,1,2.3,2.3c0,1.3-1,2.3-2.3,2.3c-1.3,0-2.3-1-2.3-2.3C11.7,5.8,12.7,4.8,14,4.8z M12.9,7.1
		c0,0.6,0.5,1.1,1.1,1.2c0.6,0,1.1-0.5,1.2-1.1c0-0.6-0.5-1.2-1.1-1.2C13.4,5.9,12.9,6.4,12.9,7.1z"/>
</g>
<g class="st0">
	<path class="st1" d="M12.3,2.1c0.5,0.1,1,0.1,1.5,0.2c3.8,0.8,6.7,3.9,7.3,7.8c0.4,2.4-0.1,4.7-1.4,6.8c0,0.1-0.1,0.1-0.2,0.3
		c0.1,0.1,0.2,0.1,0.2,0.2c1.8,1.8,3.6,3.6,5.4,5.4c0.4,0.4,0.7,0.8,0.8,1.3c0,0.2,0,0.4,0,0.6c-0.1,0.3-0.3,0.6-0.4,0.9
		c-0.3,0.4-0.7,0.5-1.1,0.6c-0.2,0-0.3,0-0.5,0c-0.6-0.1-1-0.5-1.3-0.8c-1.8-1.8-3.6-3.6-5.4-5.4c-0.1-0.1-0.1-0.1-0.2-0.2
		c0,0,0,0.1,0,0.1c-0.7,0.3-1.4,0.7-2.1,1c-5.4,2-11.3-1.2-12.7-6.8C2.2,13.4,2.1,13,2,12.5c0-0.1,0-0.1,0-0.2c0-0.4,0-0.8,0-1.3
		c0-0.1,0-0.1,0-0.2c0.1-0.8,0.2-1.6,0.5-2.3c1.2-3.3,3.6-5.4,7-6.2c0.5-0.1,1-0.2,1.4-0.2C11.4,2.1,11.8,2.1,12.3,2.1z M20,11.7
		c0-4.6-3.7-8.4-8.4-8.4C7,3.3,3.2,7,3.2,11.7c0,4.6,3.7,8.4,8.4,8.4C16.2,20.1,20,16.3,20,11.7z M18,18.9c0,0,0.1,0.1,0.1,0.1
		c1.9,1.9,3.7,3.7,5.6,5.6c0,0,0.1,0.1,0.2,0.1c0.3,0.2,0.8,0.1,0.9-0.3c0.1-0.3-0.1-0.5-0.2-0.7c-1.9-1.9-3.7-3.7-5.6-5.6
		c0,0-0.1-0.1-0.1-0.1C18.5,18.3,18.2,18.6,18,18.9z"/>
	<path class="st1" d="M13.5,11.6c0.7,0.4,1.2,0.8,1.6,1.4c0.4,0.7,0.6,1.4,0.7,2.2c0,0.4-0.2,0.7-0.7,0.7c-2.4,0-4.7,0-7.1,0
		c-0.4,0-0.7-0.2-0.6-0.7c0.1-1.5,0.8-2.7,2.1-3.5c0,0,0.1-0.1,0.1-0.1c0,0,0,0,0,0c-0.8-0.7-1.2-1.6-1-2.7c0.1-0.7,0.4-1.4,1-1.9
		c1.2-1,3-0.9,4.1,0.2C14.9,8.3,15,10.3,13.5,11.6z M14.5,14.7c-0.2-1.4-1.7-2.5-3.1-2.4c-1.3,0.1-2.7,1.3-2.7,2.4
		C10.6,14.7,12.6,14.7,14.5,14.7z M11.6,7.5c-1,0-1.8,0.8-1.8,1.8c0,1,0.8,1.8,1.8,1.8c1,0,1.8-0.8,1.8-1.8
		C13.4,8.3,12.6,7.5,11.6,7.5z"/>
</g>
<g class="st0">
	<path class="st1" d="M14.8,2.1c0.3,0.1,0.6,0.1,0.9,0.2c2.1,0.5,3.9,2.5,4.2,4.7c0.2,1.4,0,2.8-0.8,4c-1.1,1.6-2.6,2.5-4.5,2.7
		c-2.6,0.2-4.7-1.3-5.6-3.4C8.1,8.3,8.4,5.7,9.9,4.1c0.9-1,1.9-1.7,3.2-1.9c0.2,0,0.4-0.1,0.7-0.1C14.1,2.1,14.4,2.1,14.8,2.1z
		 M18.6,7.8c0-2.4-2-4.4-4.4-4.4c-2.4,0-4.4,1.9-4.4,4.4c0,2.4,2,4.4,4.4,4.4C16.7,12.2,18.6,10.3,18.6,7.8z"/>
	<path class="st1" d="M14.4,26c-1.9,0-3.8,0-5.7,0c-1,0-1.9-0.2-2.7-0.8c-0.9-0.7-1.5-1.5-1.6-2.7c-0.2-2,0.1-3.9,0.8-5.8
		c0.4-1.1,1.1-2.1,2.2-2.6c0.7-0.4,1.4-0.5,2.2-0.5c0.2,0,0.5,0.1,0.7,0.2c0.4,0.2,0.7,0.4,1,0.6c2,1.2,4,1.2,6,0
		c0.3-0.2,0.5-0.3,0.8-0.5c0.5-0.4,1-0.4,1.6-0.3c1.5,0.2,2.6,1.1,3.3,2.4c0.7,1.2,1,2.5,1.1,3.9c0.1,0.7,0.1,1.4,0.1,2.1
		c0,2.1-1.5,3.7-3.6,3.9c-0.3,0-0.5,0-0.8,0C18.1,26,16.3,26,14.4,26z M14.4,24.6C14.4,24.6,14.4,24.6,14.4,24.6c2,0,4,0,5.9,0
		c1.7,0,2.7-1.1,2.7-2.7c0-0.6,0-1.2-0.1-1.8c-0.1-1.1-0.4-2.2-0.9-3.2c-0.6-1-1.4-1.7-2.6-1.8c-0.1,0-0.2,0-0.3,0.1
		c-0.4,0.2-0.7,0.4-1,0.7c-1,0.6-2,1-3.2,1.1c-1.5,0.1-3-0.3-4.3-1.1c-0.3-0.2-0.6-0.4-0.9-0.6c-0.1,0-0.1-0.1-0.2-0.1
		c-0.8,0-1.4,0.3-2,0.8c-0.5,0.5-0.8,1-1,1.6c-0.6,1.5-0.7,3.1-0.7,4.7c0,0.9,0.4,1.6,1.2,2.1c0.5,0.3,1.1,0.4,1.7,0.4
		C10.6,24.6,12.5,24.6,14.4,24.6z"/>
</g>
<g>
	<path class="st2" d="M14.3,11.1c-3.5,0-7,0-10.5,0c-0.2,0-0.5,0-0.7-0.1c-0.6-0.3-0.6-1.1,0-1.5C4.6,8.5,6,7.6,7.3,6.7
		c2.1-1.4,4.2-2.8,6.3-4.2c0.5-0.3,0.8-0.4,1.3,0c3.4,2.3,6.9,4.6,10.3,6.9c0.2,0.1,0.4,0.4,0.5,0.6c0.2,0.5-0.1,1-0.6,1.1
		c-0.2,0-0.3,0-0.5,0C21.2,11.1,17.8,11.1,14.3,11.1z M23.1,9.6C23,9.5,23,9.5,22.9,9.5c-2.8-1.9-5.6-3.7-8.4-5.6
		c-0.2-0.1-0.2-0.1-0.4,0c-2.8,1.9-5.5,3.7-8.3,5.5c-0.1,0-0.1,0.1-0.2,0.2C11.4,9.6,17.2,9.6,23.1,9.6z"/>
	<path class="st2" d="M14.3,25.8c-3,0-5.9,0-8.9,0c-1.4,0-2.3-1.4-1.8-2.6c0.3-0.7,1-1.2,1.8-1.2c1.9,0,3.7,0,5.6,0
		c4.1,0,8.1,0,12.2,0c1.1,0,2,0.8,2,2c0,1.1-0.8,1.9-1.9,1.9c-2,0-3.9,0-5.9,0C16.3,25.8,15.3,25.8,14.3,25.8z M14.3,24.4
		c2.7,0,5.4,0,8.1,0c0.1,0,0.2,0,0.3,0c0.4,0,0.6-0.2,0.6-0.5c0-0.3-0.2-0.5-0.6-0.5c-0.1,0-0.1,0-0.2,0c-5.4,0-10.8,0-16.3,0
		c-0.5,0-0.8,0.2-0.8,0.5c0,0.3,0.3,0.5,0.8,0.5C8.9,24.4,11.6,24.4,14.3,24.4z"/>
	<path class="st2" d="M7.5,16.5c0,1.1,0,2.3,0,3.4c0,0.5-0.4,0.8-0.9,0.8c-0.5,0-0.8-0.3-0.8-0.7c0-0.4,0-0.8,0-1.2
		c0-1.8,0-3.6,0-5.5c0-0.1,0-0.2,0-0.2c0-0.4,0.4-0.7,0.9-0.7c0.5,0,0.8,0.3,0.8,0.7C7.5,14.2,7.5,15.4,7.5,16.5z"/>
	<path class="st2" d="M22.9,16.5c0,1.1,0,2.3,0,3.4c0,0.5-0.4,0.8-1,0.8c-0.5,0-0.9-0.3-0.9-0.7c0-0.4,0-0.9,0-1.3
		c0-1.8,0-3.6,0-5.4c0-0.1,0-0.2,0-0.3c0.1-0.4,0.4-0.6,0.9-0.6c0.5,0,0.9,0.3,0.9,0.6c0,0.4,0,0.8,0,1.1
		C22.9,14.9,22.9,15.7,22.9,16.5z"/>
	<path class="st2" d="M17.8,16.5c0,1.2,0,2.3,0,3.5c0,0.5-0.6,0.8-1.2,0.6c-0.4-0.1-0.6-0.4-0.6-0.7c0-1.3,0-2.7,0-4c0-1,0-2,0-2.9
		c0-0.3,0.3-0.6,0.7-0.7c0.4-0.1,0.8,0.1,1,0.3c0.1,0.1,0.1,0.3,0.1,0.4C17.8,14.3,17.8,15.4,17.8,16.5z"/>
	<path class="st2" d="M12.6,16.5c0,1.1,0,2.3,0,3.4c0,0.6-0.7,0.9-1.3,0.6c-0.3-0.1-0.4-0.4-0.4-0.7c0-1.4,0-2.9,0-4.3
		c0-0.8,0-1.7,0-2.5c0-0.5,0.3-0.8,0.8-0.8c0.5,0,0.9,0.3,0.9,0.8C12.6,14.3,12.6,15.4,12.6,16.5z"/>
</g>
</svg>
